<svg width="1440" height="2010" viewBox="0 0 1440 2010" fill="none" xmlns="http://www.w3.org/2000/svg">
<g opacity="0.26" filter="url(#filter0_f_218_99)">
<path d="M116 328.403C116 421.409 87.9226 385.638 30.2901 496.806C-55.4197 533.678 -75 421.409 -75 328.403C-75 235.397 -17.0461 160 30.2901 160C77.6264 160 116 235.397 116 328.403Z" fill="#6ACB7A"/>
<path d="M33.0564 503.236L35.3536 502.248L36.5046 500.028C60.131 454.455 78.4973 434.246 92.3127 419.044C95.079 416.001 97.6629 413.158 100.07 410.352C107.539 401.646 113.486 393.087 117.402 380.382C121.24 367.927 123 351.905 123 328.403C123 281.031 113.242 237.798 97.1346 206.149C81.2224 174.885 57.9728 153 30.2901 153C3.13339 153 -25.0274 174.223 -45.9225 205.429C-67.0871 237.038 -82 280.491 -82 328.403C-82 375.08 -77.1315 427.652 -60.8917 464.154C-52.746 482.464 -41.3505 497.612 -25.396 505.416C-9.18861 513.343 10.3148 513.02 33.0564 503.236Z" stroke="url(#paint0_linear_218_99)" stroke-width="14"/>
</g>
<g opacity="0.26" filter="url(#filter1_f_218_99)">
<path d="M1355.38 762.947C1271.04 770.782 1301.11 711.502 1195.43 605.373C1154.74 436.718 1254.89 388.021 1339.22 380.186C1423.56 372.351 1496.83 482.139 1500.83 577C1504.83 671.861 1439.71 755.112 1355.38 762.947Z" fill="#6ACB7A"/>
<path d="M1188.64 607.349L1189.08 609.165L1190.38 610.467C1233.84 654.111 1253.87 689.49 1268.86 715.959C1271.86 721.243 1274.65 726.172 1277.38 730.74C1285.59 744.439 1293.76 755.707 1306 762.706C1318.36 769.772 1333.88 771.965 1355.67 769.941C1444.58 761.681 1511.93 674.303 1507.8 576.352C1505.73 527.409 1485.87 474.941 1455.75 435.621C1425.75 396.452 1384.41 368.967 1338.93 373.193C1295.97 377.183 1247.66 391.659 1215.35 427.93C1182.71 464.587 1167.97 521.663 1188.64 607.349Z" stroke="url(#paint1_linear_218_99)" stroke-width="14"/>
</g>
<g opacity="0.2" filter="url(#filter2_f_218_99)">
<path d="M1568.32 1554.64C1568.32 1692.36 1484.51 1804 1381.13 1804C1277.74 1804 1206.84 1754.35 1267.22 1502.18C1267.22 1364.46 1393.55 1228 1496.94 1228C1600.32 1228 1568.32 1416.93 1568.32 1554.64Z" fill="#6ACB7A"/>
<path d="M1381.13 1811C1435.51 1811 1484.22 1781.62 1519.09 1735.17C1553.96 1688.72 1575.32 1624.87 1575.32 1554.64C1575.32 1528.67 1576.47 1500.89 1577.63 1472.74C1577.99 1463.77 1578.37 1454.77 1578.7 1445.77C1580.09 1408.68 1580.87 1371.8 1578.38 1339.15C1575.9 1306.64 1570.11 1277.42 1557.76 1256.16C1551.52 1245.42 1543.52 1236.55 1533.3 1230.39C1523.06 1224.22 1510.97 1221 1496.94 1221C1442.41 1221 1383.21 1256.74 1338.02 1308.86C1292.85 1360.95 1260.47 1430.72 1260.22 1501.35C1230.19 1627.14 1232.23 1704.63 1256.57 1750.91C1281.51 1798.35 1328.56 1811 1381.13 1811Z" stroke="url(#paint2_linear_218_99)" stroke-width="14"/>
</g>
<g opacity="0.2" filter="url(#filter3_f_218_99)">
<path d="M391 1196.52C391 1287.39 341.17 1472.99 190.557 1493C129.309 1493 116 1272.05 116 1181.18C116 1090.32 218.853 1032 280.101 1032C341.349 1032 391 1105.66 391 1196.52Z" fill="#6ACB7A" fill-opacity="0.59"/>
<path d="M190.557 1500H191.02L191.479 1499.94C269.861 1489.53 321.579 1435.99 353.471 1374.56C385.328 1313.19 398 1242.95 398 1196.52C398 1149.89 385.27 1107.35 364.323 1076.28C343.404 1045.24 313.757 1025 280.101 1025C247.635 1025 205.137 1040.29 170.787 1066.99C136.338 1093.77 109 1132.9 109 1181.18C109 1226.83 112.337 1305.2 123.404 1372.3C128.927 1405.79 136.448 1436.95 146.674 1459.9C151.784 1471.38 157.751 1481.22 164.821 1488.28C171.98 1495.43 180.571 1500 190.557 1500Z" stroke="url(#paint3_linear_218_99)" stroke-width="14"/>
</g>
<defs>
<filter id="filter0_f_218_99" x="-235" y="0" width="511" height="664.001" filterUnits="userSpaceOnUse" color-interpolation-filters="sRGB">
<feFlood flood-opacity="0" result="BackgroundImageFix"/>
<feBlend mode="normal" in="SourceGraphic" in2="BackgroundImageFix" result="shape"/>
<feGaussianBlur stdDeviation="73" result="effect1_foregroundBlur_218_99"/>
</filter>
<filter id="filter1_f_218_99" x="1026.13" y="219.739" width="634.824" height="703.946" filterUnits="userSpaceOnUse" color-interpolation-filters="sRGB">
<feFlood flood-opacity="0" result="BackgroundImageFix"/>
<feBlend mode="normal" in="SourceGraphic" in2="BackgroundImageFix" result="shape"/>
<feGaussianBlur stdDeviation="73" result="effect1_foregroundBlur_218_99"/>
</filter>
<filter id="filter2_f_218_99" x="1085" y="1068" width="648" height="896" filterUnits="userSpaceOnUse" color-interpolation-filters="sRGB">
<feFlood flood-opacity="0" result="BackgroundImageFix"/>
<feBlend mode="normal" in="SourceGraphic" in2="BackgroundImageFix" result="shape"/>
<feGaussianBlur stdDeviation="73" result="effect1_foregroundBlur_218_99"/>
</filter>
<filter id="filter3_f_218_99" x="-44" y="872" width="595" height="781" filterUnits="userSpaceOnUse" color-interpolation-filters="sRGB">
<feFlood flood-opacity="0" result="BackgroundImageFix"/>
<feBlend mode="normal" in="SourceGraphic" in2="BackgroundImageFix" result="shape"/>
<feGaussianBlur stdDeviation="73" result="effect1_foregroundBlur_218_99"/>
</filter>
<linearGradient id="paint0_linear_218_99" x1="79.089" y1="163.99" x2="-100.854" y2="455.923" gradientUnits="userSpaceOnUse">
<stop stop-color="#6ACB7A"/>
<stop offset="1" stop-color="#5EB797"/>
</linearGradient>
<linearGradient id="paint1_linear_218_99" x1="1501.34" y1="675.128" x2="1161.95" y2="596.826" gradientUnits="userSpaceOnUse">
<stop stop-color="#6ACB7A"/>
<stop offset="1" stop-color="#5EB797"/>
</linearGradient>
<linearGradient id="paint2_linear_218_99" x1="1509.61" y1="1234.68" x2="1211.79" y2="1730.22" gradientUnits="userSpaceOnUse">
<stop stop-color="#6ACB7A"/>
<stop offset="1" stop-color="#5EB797"/>
</linearGradient>
<linearGradient id="paint3_linear_218_99" x1="337.856" y1="1037.35" x2="104.83" y2="1443.52" gradientUnits="userSpaceOnUse">
<stop stop-color="#6ACB7A"/>
<stop offset="1" stop-color="#5EB797"/>
</linearGradient>
</defs>
</svg>
