<svg width="336" height="90" viewBox="0 0 336 90" fill="none" xmlns="http://www.w3.org/2000/svg">
<path d="M11.245 4.718L8.931 14H7.748L6.097 7.916C6.045 7.734 5.993 7.54767 5.941 7.357C5.89767 7.16633 5.85433 6.98433 5.811 6.811C5.76767 6.63767 5.733 6.49033 5.707 6.369C5.681 6.239 5.66367 6.14367 5.655 6.083C5.64633 6.14367 5.629 6.239 5.603 6.369C5.577 6.49033 5.54667 6.63767 5.512 6.811C5.47733 6.98433 5.434 7.17067 5.382 7.37C5.33867 7.56067 5.291 7.75567 5.239 7.955L3.627 14H2.431L0.13 4.718H1.339L2.678 10.386C2.72133 10.5853 2.76467 10.7847 2.808 10.984C2.85133 11.1747 2.886 11.3653 2.912 11.556C2.94667 11.738 2.977 11.9157 3.003 12.089C3.03767 12.2623 3.06367 12.4313 3.081 12.596C3.107 12.4227 3.133 12.245 3.159 12.063C3.19367 11.881 3.22833 11.6947 3.263 11.504C3.30633 11.3047 3.34967 11.1053 3.393 10.906C3.445 10.7067 3.497 10.5117 3.549 10.321L5.057 4.718H6.253L7.826 10.36C7.878 10.5593 7.92567 10.763 7.969 10.971C8.021 11.1703 8.06433 11.3653 8.099 11.556C8.14233 11.7467 8.177 11.933 8.203 12.115C8.23767 12.2883 8.268 12.4487 8.294 12.596C8.32 12.3793 8.35467 12.154 8.398 11.92C8.44133 11.6773 8.489 11.426 8.541 11.166C8.60167 10.906 8.66233 10.6417 8.723 10.373L10.049 4.718H11.245ZM14.7215 6.902C15.2848 6.902 15.7702 7.032 16.1775 7.292C16.5848 7.552 16.8968 7.92033 17.1135 8.397C17.3388 8.865 17.4515 9.41533 17.4515 10.048V10.737H12.9795C12.9968 11.5257 13.1832 12.128 13.5385 12.544C13.8938 12.9513 14.3922 13.155 15.0335 13.155C15.4495 13.155 15.8178 13.116 16.1385 13.038C16.4678 12.9513 16.8058 12.83 17.1525 12.674V13.675C16.8145 13.831 16.4808 13.9437 16.1515 14.013C15.8308 14.091 15.4408 14.13 14.9815 14.13C14.3575 14.13 13.8072 13.9957 13.3305 13.727C12.8538 13.4583 12.4812 13.0597 12.2125 12.531C11.9438 11.9937 11.8095 11.3393 11.8095 10.568C11.8095 9.80533 11.9308 9.151 12.1735 8.605C12.4162 8.059 12.7542 7.63867 13.1875 7.344C13.6295 7.04933 14.1408 6.902 14.7215 6.902ZM14.7215 7.838C14.2188 7.838 13.8202 8.01567 13.5255 8.371C13.2308 8.71767 13.0575 9.203 13.0055 9.827H16.2815C16.2815 9.42833 16.2252 9.08167 16.1125 8.787C15.9998 8.49233 15.8265 8.26267 15.5925 8.098C15.3672 7.92467 15.0768 7.838 14.7215 7.838ZM20.2364 7.032V14H19.1054V7.032H20.2364ZM19.6774 4.419C19.8508 4.419 20.0024 4.47967 20.1324 4.601C20.2624 4.71367 20.3274 4.89567 20.3274 5.147C20.3274 5.38967 20.2624 5.57167 20.1324 5.693C20.0024 5.81433 19.8508 5.875 19.6774 5.875C19.4954 5.875 19.3394 5.81433 19.2094 5.693C19.0794 5.57167 19.0144 5.38967 19.0144 5.147C19.0144 4.89567 19.0794 4.71367 19.2094 4.601C19.3394 4.47967 19.4954 4.419 19.6774 4.419ZM24.6056 6.902C25.039 6.902 25.4246 6.98867 25.7626 7.162C26.1093 7.33533 26.404 7.59967 26.6466 7.955H26.7116L26.8546 7.032H27.7646V14.117C27.7646 14.7757 27.6563 15.326 27.4396 15.768C27.2316 16.2187 26.9066 16.5567 26.4646 16.782C26.0313 17.0073 25.4766 17.12 24.8006 17.12C24.324 17.12 23.8906 17.081 23.5006 17.003C23.1106 16.9337 22.7553 16.8253 22.4346 16.678V15.625C22.6513 15.7377 22.8853 15.833 23.1366 15.911C23.3966 15.9977 23.6696 16.0627 23.9556 16.106C24.2503 16.1493 24.5536 16.171 24.8656 16.171C25.4203 16.171 25.8536 15.9933 26.1656 15.638C26.4863 15.2913 26.6466 14.8147 26.6466 14.208V13.935C26.6466 13.831 26.651 13.6837 26.6596 13.493C26.6683 13.2937 26.677 13.155 26.6856 13.077H26.6336C26.4083 13.4323 26.1266 13.6967 25.7886 13.87C25.4506 14.0433 25.0606 14.13 24.6186 14.13C23.778 14.13 23.1193 13.8137 22.6426 13.181C22.166 12.5483 21.9276 11.6643 21.9276 10.529C21.9276 9.78367 22.0316 9.14233 22.2396 8.605C22.4563 8.059 22.764 7.63867 23.1626 7.344C23.57 7.04933 24.051 6.902 24.6056 6.902ZM24.7876 7.864C24.4323 7.864 24.1246 7.968 23.8646 8.176C23.6133 8.384 23.4226 8.68733 23.2926 9.086C23.1626 9.48467 23.0976 9.97 23.0976 10.542C23.0976 11.4 23.2406 12.0587 23.5266 12.518C23.8213 12.9687 24.2503 13.194 24.8136 13.194C25.1343 13.194 25.4116 13.1507 25.6456 13.064C25.8796 12.9687 26.0703 12.8257 26.2176 12.635C26.365 12.4357 26.4733 12.1843 26.5426 11.881C26.6206 11.5777 26.6596 11.218 26.6596 10.802V10.529C26.6596 9.89633 26.5903 9.385 26.4516 8.995C26.3216 8.605 26.118 8.319 25.8406 8.137C25.572 7.955 25.221 7.864 24.7876 7.864ZM30.951 7.019C30.951 7.18367 30.9423 7.35267 30.925 7.526C30.9163 7.69933 30.9033 7.85533 30.886 7.994H30.964C31.1026 7.75133 31.276 7.552 31.484 7.396C31.7006 7.24 31.9346 7.123 32.186 7.045C32.446 6.95833 32.7146 6.915 32.992 6.915C33.5206 6.915 33.9626 7.006 34.318 7.188C34.6733 7.36133 34.942 7.63433 35.124 8.007C35.306 8.37967 35.397 8.865 35.397 9.463V14H34.266V9.541C34.266 8.97767 34.149 8.55733 33.915 8.28C33.681 8.00267 33.3213 7.864 32.836 7.864C32.3593 7.864 31.9823 7.96367 31.705 8.163C31.4276 8.35367 31.2326 8.63967 31.12 9.021C31.0073 9.39367 30.951 9.853 30.951 10.399V14H29.82V4.12H30.951V7.019ZM39.6608 13.194C39.8254 13.194 39.9944 13.181 40.1678 13.155C40.3411 13.1203 40.4841 13.0857 40.5968 13.051V13.922C40.4754 13.9827 40.3021 14.0303 40.0768 14.065C39.8601 14.1083 39.6521 14.13 39.4528 14.13C39.1061 14.13 38.7854 14.0693 38.4908 13.948C38.1961 13.818 37.9578 13.597 37.7758 13.285C37.6024 12.973 37.5158 12.5353 37.5158 11.972V7.916H36.5928V7.37L37.5418 6.915L37.9708 5.433H38.6468V7.032H40.5448V7.916H38.6468V11.946C38.6468 12.3707 38.7421 12.687 38.9328 12.895C39.1234 13.0943 39.3661 13.194 39.6608 13.194ZM44.534 10.438C44.534 9.72733 44.5947 9.034 44.716 8.358C44.846 7.682 45.0454 7.03633 45.314 6.421C45.5827 5.80567 45.9207 5.238 46.328 4.718H47.381C47.0084 5.25533 46.692 5.836 46.432 6.46C46.1807 7.084 45.99 7.72967 45.86 8.397C45.73 9.06433 45.665 9.74033 45.665 10.425C45.665 11.0923 45.73 11.7553 45.86 12.414C45.99 13.0727 46.1807 13.7053 46.432 14.312C46.6834 14.9273 46.9954 15.508 47.368 16.054H46.328C45.9207 15.5427 45.5827 14.9837 45.314 14.377C45.0454 13.779 44.846 13.1463 44.716 12.479C44.5947 11.8117 44.534 11.1313 44.534 10.438ZM49.9181 7.032V14H48.7871V7.032H49.9181ZM49.3591 4.419C49.5324 4.419 49.6841 4.47967 49.8141 4.601C49.9441 4.71367 50.0091 4.89567 50.0091 5.147C50.0091 5.38967 49.9441 5.57167 49.8141 5.693C49.6841 5.81433 49.5324 5.875 49.3591 5.875C49.1771 5.875 49.0211 5.81433 48.8911 5.693C48.7611 5.57167 48.6961 5.38967 48.6961 5.147C48.6961 4.89567 48.7611 4.71367 48.8911 4.601C49.0211 4.47967 49.1771 4.419 49.3591 4.419ZM55.1713 6.902C55.9513 6.902 56.5406 7.10567 56.9393 7.513C57.3466 7.91167 57.5503 8.56167 57.5503 9.463V14H56.4193V9.541C56.4193 8.97767 56.3023 8.55733 56.0683 8.28C55.8343 8.00267 55.4746 7.864 54.9893 7.864C54.2786 7.864 53.7846 8.08067 53.5073 8.514C53.2386 8.94733 53.1043 9.57133 53.1043 10.386V14H51.9733V7.032H52.8833L53.0523 7.981H53.1173C53.256 7.73833 53.4336 7.539 53.6503 7.383C53.867 7.21833 54.1053 7.097 54.3653 7.019C54.6253 6.941 54.894 6.902 55.1713 6.902ZM63.8569 9.281C63.8569 9.41967 63.8482 9.60167 63.8309 9.827C63.8222 10.0523 63.8136 10.2473 63.8049 10.412H63.8569C63.9089 10.3427 63.9826 10.243 64.0779 10.113C64.1732 9.983 64.2729 9.853 64.3769 9.723C64.4809 9.58433 64.5719 9.47167 64.6499 9.385L66.7169 7.032H68.0299L65.3779 10.009L68.2119 14H66.8599L64.6109 10.75L63.8569 11.439V14H62.7389V4.12H63.8569V9.281ZM71.6545 6.902C72.0878 6.902 72.4735 6.98867 72.8115 7.162C73.1581 7.33533 73.4528 7.59967 73.6955 7.955H73.7605L73.9035 7.032H74.8135V14.117C74.8135 14.7757 74.7051 15.326 74.4885 15.768C74.2805 16.2187 73.9555 16.5567 73.5135 16.782C73.0801 17.0073 72.5255 17.12 71.8495 17.12C71.3728 17.12 70.9395 17.081 70.5495 17.003C70.1595 16.9337 69.8041 16.8253 69.4835 16.678V15.625C69.7001 15.7377 69.9341 15.833 70.1855 15.911C70.4455 15.9977 70.7185 16.0627 71.0045 16.106C71.2991 16.1493 71.6025 16.171 71.9145 16.171C72.4691 16.171 72.9025 15.9933 73.2145 15.638C73.5351 15.2913 73.6955 14.8147 73.6955 14.208V13.935C73.6955 13.831 73.6998 13.6837 73.7085 13.493C73.7171 13.2937 73.7258 13.155 73.7345 13.077H73.6825C73.4571 13.4323 73.1755 13.6967 72.8375 13.87C72.4995 14.0433 72.1095 14.13 71.6675 14.13C70.8268 14.13 70.1681 13.8137 69.6915 13.181C69.2148 12.5483 68.9765 11.6643 68.9765 10.529C68.9765 9.78367 69.0805 9.14233 69.2885 8.605C69.5051 8.059 69.8128 7.63867 70.2115 7.344C70.6188 7.04933 71.0998 6.902 71.6545 6.902ZM71.8365 7.864C71.4811 7.864 71.1735 7.968 70.9135 8.176C70.6621 8.384 70.4715 8.68733 70.3415 9.086C70.2115 9.48467 70.1465 9.97 70.1465 10.542C70.1465 11.4 70.2895 12.0587 70.5755 12.518C70.8701 12.9687 71.2991 13.194 71.8625 13.194C72.1831 13.194 72.4605 13.1507 72.6945 13.064C72.9285 12.9687 73.1191 12.8257 73.2665 12.635C73.4138 12.4357 73.5221 12.1843 73.5915 11.881C73.6695 11.5777 73.7085 11.218 73.7085 10.802V10.529C73.7085 9.89633 73.6391 9.385 73.5005 8.995C73.3705 8.605 73.1668 8.319 72.8895 8.137C72.6208 7.955 72.2698 7.864 71.8365 7.864ZM81.1718 12.076C81.1718 12.5267 81.0635 12.9037 80.8468 13.207C80.6388 13.5103 80.3398 13.74 79.9498 13.896C79.5598 14.052 79.0918 14.13 78.5458 14.13C78.0865 14.13 77.6878 14.091 77.3498 14.013C77.0205 13.935 76.7301 13.8267 76.4788 13.688V12.648C76.7475 12.7867 77.0681 12.9167 77.4408 13.038C77.8135 13.1507 78.1905 13.207 78.5718 13.207C79.1005 13.207 79.4818 13.116 79.7158 12.934C79.9585 12.7433 80.0798 12.492 80.0798 12.18C80.0798 12.0067 80.0321 11.8507 79.9368 11.712C79.8501 11.5733 79.6898 11.4347 79.4558 11.296C79.2305 11.1573 78.9011 11.0013 78.4678 10.828C78.0518 10.6547 77.6921 10.4813 77.3888 10.308C77.0941 10.1347 76.8645 9.92667 76.6998 9.684C76.5438 9.44133 76.4658 9.12933 76.4658 8.748C76.4658 8.15867 76.6911 7.70367 77.1418 7.383C77.6011 7.06233 78.1991 6.902 78.9358 6.902C79.3345 6.902 79.7071 6.94533 80.0538 7.032C80.4005 7.11 80.7298 7.22267 81.0418 7.37L80.6648 8.28C80.4828 8.19333 80.2921 8.11967 80.0928 8.059C79.8935 7.98967 79.6898 7.93767 79.4818 7.903C79.2825 7.85967 79.0788 7.838 78.8708 7.838C78.4461 7.838 78.1211 7.916 77.8958 8.072C77.6705 8.21933 77.5578 8.423 77.5578 8.683C77.5578 8.87367 77.6098 9.03833 77.7138 9.177C77.8178 9.31567 77.9868 9.45 78.2208 9.58C78.4635 9.70133 78.7928 9.84433 79.2088 10.009C79.6248 10.1737 79.9801 10.3427 80.2748 10.516C80.5695 10.6893 80.7905 10.9017 80.9378 11.153C81.0938 11.3957 81.1718 11.7033 81.1718 12.076ZM84.9307 10.438C84.9307 11.1313 84.8657 11.8117 84.7357 12.479C84.6144 13.1463 84.4194 13.779 84.1507 14.377C83.8907 14.9837 83.5527 15.5427 83.1367 16.054H82.0967C82.4694 15.508 82.7814 14.9273 83.0327 14.312C83.2841 13.7053 83.4747 13.0727 83.6047 12.414C83.7347 11.7553 83.7997 11.0923 83.7997 10.425C83.7997 9.74033 83.7347 9.06433 83.6047 8.397C83.4747 7.72967 83.2841 7.084 83.0327 6.46C82.7814 5.836 82.4651 5.25533 82.0837 4.718H83.1367C83.5527 5.238 83.8907 5.80567 84.1507 6.421C84.4194 7.03633 84.6144 7.682 84.7357 8.358C84.8657 9.034 84.9307 9.72733 84.9307 10.438Z" fill="black"/>
<path d="M5.964 76.569C5.964 77.265 5.916 77.885 5.82 78.429C5.724 78.973 5.564 79.437 5.34 79.821C5.124 80.197 4.84 80.485 4.488 80.685C4.144 80.885 3.72 80.985 3.216 80.985C2.6 80.985 2.088 80.809 1.68 80.457C1.28 80.105 0.98 79.601 0.78 78.945C0.588 78.281 0.492 77.489 0.492 76.569C0.492 75.641 0.58 74.849 0.756 74.193C0.94 73.537 1.232 73.037 1.632 72.693C2.032 72.341 2.564 72.165 3.228 72.165C3.852 72.165 4.364 72.341 4.764 72.693C5.172 73.037 5.472 73.537 5.664 74.193C5.864 74.849 5.964 75.641 5.964 76.569ZM1.8 76.569C1.8 77.313 1.844 77.933 1.932 78.429C2.028 78.925 2.18 79.297 2.388 79.545C2.604 79.793 2.884 79.917 3.228 79.917C3.58 79.917 3.856 79.797 4.056 79.557C4.264 79.309 4.416 78.937 4.512 78.441C4.608 77.937 4.656 77.313 4.656 76.569C4.656 75.825 4.608 75.209 4.512 74.721C4.416 74.225 4.264 73.853 4.056 73.605C3.856 73.357 3.58 73.233 3.228 73.233C2.884 73.233 2.604 73.357 2.388 73.605C2.18 73.853 2.028 74.225 1.932 74.721C1.844 75.209 1.8 75.825 1.8 76.569ZM11.6064 76.305C11.6064 76.473 11.5984 76.665 11.5824 76.881C11.5664 77.097 11.5504 77.297 11.5344 77.481H11.5824C11.6304 77.401 11.6944 77.305 11.7744 77.193C11.8624 77.073 11.9504 76.953 12.0384 76.833C12.1344 76.713 12.2224 76.609 12.3024 76.521L14.1144 74.397H15.6024L13.1904 77.169L15.7584 80.865H14.2224L12.3024 77.973L11.6064 78.597V80.865H10.3104V71.745H11.6064V76.305ZM18.8323 74.277C19.2243 74.277 19.5723 74.357 19.8763 74.517C20.1883 74.677 20.4523 74.921 20.6683 75.249H20.7163L20.8603 74.397H21.9283V80.949C21.9283 81.557 21.8243 82.069 21.6163 82.485C21.4083 82.901 21.0923 83.213 20.6683 83.421C20.2443 83.637 19.7083 83.745 19.0603 83.745C18.6123 83.745 18.2043 83.713 17.8363 83.649C17.4763 83.585 17.1403 83.485 16.8283 83.349V82.233C17.0363 82.345 17.2603 82.437 17.5003 82.509C17.7403 82.589 17.9923 82.645 18.2563 82.677C18.5283 82.717 18.8083 82.737 19.0963 82.737C19.5923 82.737 19.9723 82.585 20.2363 82.281C20.5083 81.985 20.6443 81.565 20.6443 81.021V80.805C20.6443 80.701 20.6483 80.565 20.6563 80.397C20.6643 80.221 20.6723 80.093 20.6803 80.013H20.6323C20.4323 80.349 20.1803 80.597 19.8763 80.757C19.5803 80.909 19.2283 80.985 18.8203 80.985C18.0683 80.985 17.4763 80.693 17.0443 80.109C16.6123 79.517 16.3963 78.697 16.3963 77.649C16.3963 76.945 16.4923 76.345 16.6843 75.849C16.8843 75.345 17.1643 74.957 17.5243 74.685C17.8923 74.413 18.3283 74.277 18.8323 74.277ZM19.1443 75.333C18.8403 75.333 18.5843 75.425 18.3763 75.609C18.1683 75.785 18.0083 76.045 17.8963 76.389C17.7923 76.733 17.7403 77.157 17.7403 77.661C17.7403 78.413 17.8603 78.985 18.1003 79.377C18.3403 79.769 18.6923 79.965 19.1563 79.965C19.4283 79.965 19.6603 79.925 19.8523 79.845C20.0443 79.765 20.2003 79.641 20.3203 79.473C20.4483 79.305 20.5403 79.093 20.5963 78.837C20.6603 78.573 20.6923 78.257 20.6923 77.889V77.649C20.6923 77.097 20.6363 76.653 20.5243 76.317C20.4203 75.973 20.2523 75.725 20.0203 75.573C19.7963 75.413 19.5043 75.333 19.1443 75.333Z" fill="#333333"/>
<path d="M296.645 75.549C297.165 75.549 297.621 75.649 298.013 75.849C298.413 76.049 298.725 76.337 298.949 76.713C299.173 77.089 299.285 77.549 299.285 78.093C299.285 78.693 299.165 79.209 298.925 79.641C298.685 80.073 298.333 80.405 297.869 80.637C297.413 80.869 296.853 80.985 296.189 80.985C295.765 80.985 295.369 80.945 295.001 80.865C294.633 80.785 294.317 80.669 294.053 80.517V79.353C294.325 79.521 294.657 79.657 295.049 79.761C295.441 79.865 295.809 79.917 296.153 79.917C296.521 79.917 296.837 79.857 297.101 79.737C297.373 79.609 297.581 79.421 297.725 79.173C297.877 78.917 297.953 78.597 297.953 78.213C297.953 77.693 297.805 77.297 297.509 77.025C297.213 76.745 296.749 76.605 296.117 76.605C295.901 76.605 295.669 76.625 295.421 76.665C295.173 76.705 294.969 76.745 294.809 76.785L294.233 76.437L294.533 72.297H298.721V73.425H295.661L295.493 75.669C295.621 75.645 295.777 75.621 295.961 75.597C296.153 75.565 296.381 75.549 296.645 75.549ZM305.838 76.569C305.838 77.265 305.79 77.885 305.694 78.429C305.598 78.973 305.438 79.437 305.214 79.821C304.998 80.197 304.714 80.485 304.362 80.685C304.018 80.885 303.594 80.985 303.09 80.985C302.474 80.985 301.962 80.809 301.554 80.457C301.154 80.105 300.854 79.601 300.654 78.945C300.462 78.281 300.366 77.489 300.366 76.569C300.366 75.641 300.454 74.849 300.63 74.193C300.814 73.537 301.106 73.037 301.506 72.693C301.906 72.341 302.438 72.165 303.102 72.165C303.726 72.165 304.238 72.341 304.638 72.693C305.046 73.037 305.346 73.537 305.538 74.193C305.738 74.849 305.838 75.641 305.838 76.569ZM301.674 76.569C301.674 77.313 301.718 77.933 301.806 78.429C301.902 78.925 302.054 79.297 302.262 79.545C302.478 79.793 302.758 79.917 303.102 79.917C303.454 79.917 303.73 79.797 303.93 79.557C304.138 79.309 304.29 78.937 304.386 78.441C304.482 77.937 304.53 77.313 304.53 76.569C304.53 75.825 304.482 75.209 304.386 74.721C304.29 74.225 304.138 73.853 303.93 73.605C303.73 73.357 303.454 73.233 303.102 73.233C302.758 73.233 302.478 73.357 302.262 73.605C302.054 73.853 301.902 74.225 301.806 74.721C301.718 75.209 301.674 75.825 301.674 76.569ZM311.481 76.305C311.481 76.473 311.473 76.665 311.457 76.881C311.441 77.097 311.425 77.297 311.409 77.481H311.457C311.505 77.401 311.569 77.305 311.649 77.193C311.737 77.073 311.825 76.953 311.913 76.833C312.009 76.713 312.097 76.609 312.177 76.521L313.989 74.397H315.477L313.065 77.169L315.633 80.865H314.097L312.177 77.973L311.481 78.597V80.865H310.185V71.745H311.481V76.305ZM318.706 74.277C319.098 74.277 319.446 74.357 319.75 74.517C320.062 74.677 320.326 74.921 320.542 75.249H320.59L320.734 74.397H321.802V80.949C321.802 81.557 321.698 82.069 321.49 82.485C321.282 82.901 320.966 83.213 320.542 83.421C320.118 83.637 319.582 83.745 318.934 83.745C318.486 83.745 318.078 83.713 317.71 83.649C317.35 83.585 317.014 83.485 316.702 83.349V82.233C316.91 82.345 317.134 82.437 317.374 82.509C317.614 82.589 317.866 82.645 318.13 82.677C318.402 82.717 318.682 82.737 318.97 82.737C319.466 82.737 319.846 82.585 320.11 82.281C320.382 81.985 320.518 81.565 320.518 81.021V80.805C320.518 80.701 320.522 80.565 320.53 80.397C320.538 80.221 320.546 80.093 320.554 80.013H320.506C320.306 80.349 320.054 80.597 319.75 80.757C319.454 80.909 319.102 80.985 318.694 80.985C317.942 80.985 317.35 80.693 316.918 80.109C316.486 79.517 316.27 78.697 316.27 77.649C316.27 76.945 316.366 76.345 316.558 75.849C316.758 75.345 317.038 74.957 317.398 74.685C317.766 74.413 318.202 74.277 318.706 74.277ZM319.018 75.333C318.714 75.333 318.458 75.425 318.25 75.609C318.042 75.785 317.882 76.045 317.77 76.389C317.666 76.733 317.614 77.157 317.614 77.661C317.614 78.413 317.734 78.985 317.974 79.377C318.214 79.769 318.566 79.965 319.03 79.965C319.302 79.965 319.534 79.925 319.726 79.845C319.918 79.765 320.074 79.641 320.194 79.473C320.322 79.305 320.414 79.093 320.47 78.837C320.534 78.573 320.566 78.257 320.566 77.889V77.649C320.566 77.097 320.51 76.653 320.398 76.317C320.294 75.973 320.126 75.725 319.894 75.573C319.67 75.413 319.378 75.333 319.018 75.333Z" fill="#333333"/>
<path d="M52.4234 41H45.5834V39.77L48.1784 36.965C48.6784 36.415 49.0934 35.94 49.4234 35.54C49.7534 35.13 49.9984 34.74 50.1584 34.37C50.3284 33.99 50.4134 33.58 50.4134 33.14C50.4134 32.59 50.2684 32.18 49.9784 31.91C49.6984 31.63 49.3284 31.49 48.8684 31.49C48.4184 31.49 48.0134 31.585 47.6534 31.775C47.2934 31.955 46.9184 32.21 46.5284 32.54L45.6434 31.475C45.9234 31.225 46.2184 31 46.5284 30.8C46.8484 30.6 47.2034 30.44 47.5934 30.32C47.9934 30.2 48.4434 30.14 48.9434 30.14C49.5834 30.14 50.1334 30.26 50.5934 30.5C51.0634 30.73 51.4234 31.06 51.6734 31.49C51.9334 31.92 52.0634 32.425 52.0634 33.005C52.0634 33.435 51.9984 33.835 51.8684 34.205C51.7484 34.575 51.5684 34.94 51.3284 35.3C51.0984 35.66 50.8184 36.03 50.4884 36.41C50.1684 36.78 49.8134 37.18 49.4234 37.61L47.6534 39.515V39.59H52.4234V41ZM59.4765 35.3C59.4765 35.51 59.4665 35.75 59.4465 36.02C59.4265 36.29 59.4065 36.54 59.3865 36.77H59.4465C59.5065 36.67 59.5865 36.55 59.6865 36.41C59.7965 36.26 59.9065 36.11 60.0165 35.96C60.1365 35.81 60.2465 35.68 60.3465 35.57L62.6115 32.915H64.4715L61.4565 36.38L64.6665 41H62.7465L60.3465 37.385L59.4765 38.165V41H57.8565V29.6H59.4765V35.3ZM68.5088 32.765C68.9988 32.765 69.4338 32.865 69.8138 33.065C70.2038 33.265 70.5338 33.57 70.8038 33.98H70.8638L71.0438 32.915H72.3788V41.105C72.3788 41.865 72.2488 42.505 71.9888 43.025C71.7288 43.545 71.3338 43.935 70.8038 44.195C70.2738 44.465 69.6038 44.6 68.7938 44.6C68.2338 44.6 67.7238 44.56 67.2638 44.48C66.8138 44.4 66.3938 44.275 66.0038 44.105V42.71C66.2638 42.85 66.5438 42.965 66.8438 43.055C67.1438 43.155 67.4588 43.225 67.7888 43.265C68.1288 43.315 68.4788 43.34 68.8388 43.34C69.4588 43.34 69.9338 43.15 70.2638 42.77C70.6038 42.4 70.7738 41.875 70.7738 41.195V40.925C70.7738 40.795 70.7788 40.625 70.7888 40.415C70.7988 40.195 70.8088 40.035 70.8188 39.935H70.7588C70.5088 40.355 70.1938 40.665 69.8138 40.865C69.4438 41.055 69.0038 41.15 68.4938 41.15C67.5538 41.15 66.8138 40.785 66.2738 40.055C65.7338 39.315 65.4638 38.29 65.4638 36.98C65.4638 36.1 65.5838 35.35 65.8238 34.73C66.0738 34.1 66.4238 33.615 66.8738 33.275C67.3338 32.935 67.8788 32.765 68.5088 32.765ZM68.8988 34.085C68.5188 34.085 68.1988 34.2 67.9388 34.43C67.6788 34.65 67.4788 34.975 67.3388 35.405C67.2088 35.835 67.1438 36.365 67.1438 36.995C67.1438 37.935 67.2938 38.65 67.5938 39.14C67.8938 39.63 68.3338 39.875 68.9138 39.875C69.2538 39.875 69.5438 39.825 69.7838 39.725C70.0238 39.625 70.2188 39.47 70.3688 39.26C70.5288 39.05 70.6438 38.785 70.7138 38.465C70.7938 38.135 70.8338 37.74 70.8338 37.28V36.98C70.8338 36.29 70.7638 35.735 70.6238 35.315C70.4938 34.885 70.2838 34.575 69.9938 34.385C69.7138 34.185 69.3488 34.085 68.8988 34.085Z" fill="#60BA8A"/>
<rect y="53.9485" width="323" height="4.5897" rx="2.29485" fill="#E5E5E5"/>
<rect y="54" width="59" height="5" rx="2.5" fill="#60BA8A"/>
<circle cx="57.8572" cy="56.2434" r="7.74512" fill="white" stroke="#60BA8A" stroke-width="1.72114"/>
</svg>
