<svg width="514" height="42" viewBox="0 0 514 42" fill="none" xmlns="http://www.w3.org/2000/svg">
<g clip-path="url(#clip0_350_2271)" filter="url(#filter0_d_350_2271)">
<path fill-rule="evenodd" clip-rule="evenodd" d="M88.334 16C92.7523 16 96.334 12.4183 96.334 8C96.334 3.58172 92.7523 0 88.334 0C83.9157 0 80.334 3.58172 80.334 8C80.334 12.4183 83.9157 16 88.334 16Z" fill="#60BA8A"/>
<path fill-rule="evenodd" clip-rule="evenodd" d="M93.2836 6.29301C93.6741 5.90248 93.6741 5.26932 93.2836 4.8788C92.8931 4.48827 92.2599 4.48827 91.8694 4.8788L86.9196 9.82854L84.7983 7.70722C84.4078 7.3167 83.7746 7.3167 83.3841 7.70722C82.9936 8.09775 82.9936 8.73091 83.3841 9.12144L86.2125 11.9499C86.603 12.3404 87.2362 12.3404 87.6267 11.9499L93.2836 6.29301Z" fill="white"/>
<rect x="96.334" y="7" width="76.3333" height="2" fill="#60BA8A"/>
<path d="M52.7058 29H48.1338V20.432H52.7058V21.536H49.4658V23.984H52.5138V25.076H49.4658V27.884H52.7058V29ZM53.7554 26.324V25.244H56.5874V26.324H53.7554ZM61.9965 25.412C61.9565 25.26 61.9165 25.104 61.8765 24.944C61.8365 24.784 61.7965 24.632 61.7565 24.488C61.7245 24.344 61.6965 24.208 61.6725 24.08C61.6485 23.952 61.6285 23.84 61.6125 23.744H61.5645C61.5565 23.84 61.5365 23.956 61.5045 24.092C61.4805 24.22 61.4525 24.36 61.4205 24.512C61.3885 24.656 61.3525 24.808 61.3125 24.968C61.2725 25.12 61.2325 25.276 61.1925 25.436L60.2325 28.988H58.7445L57.1005 22.52H58.4085L59.1765 25.928C59.2325 26.152 59.2805 26.38 59.3205 26.612C59.3685 26.836 59.4125 27.052 59.4525 27.26C59.4925 27.46 59.5165 27.636 59.5245 27.788H59.5725C59.5885 27.684 59.6085 27.56 59.6325 27.416C59.6645 27.264 59.6965 27.108 59.7285 26.948C59.7605 26.788 59.7925 26.632 59.8245 26.48C59.8645 26.328 59.9005 26.196 59.9325 26.084L60.8925 22.52H62.3205L63.2445 26.084C63.2925 26.244 63.3405 26.428 63.3885 26.636C63.4365 26.844 63.4805 27.048 63.5205 27.248C63.5605 27.448 63.5845 27.624 63.5925 27.776H63.6285C63.6445 27.64 63.6685 27.472 63.7005 27.272C63.7405 27.072 63.7885 26.856 63.8445 26.624C63.9005 26.392 63.9525 26.16 64.0005 25.928L64.7925 22.52H66.0765L64.4205 28.988H62.9085L61.9965 25.412ZM69.5514 22.412C70.3114 22.412 70.8834 22.592 71.2674 22.952C71.6594 23.304 71.8554 23.86 71.8554 24.62V29H70.9314L70.6794 28.1H70.6314C70.4474 28.332 70.2634 28.524 70.0794 28.676C69.9034 28.828 69.6954 28.94 69.4554 29.012C69.2234 29.084 68.9354 29.12 68.5914 29.12C68.2314 29.12 67.9074 29.052 67.6194 28.916C67.3314 28.772 67.1034 28.556 66.9354 28.268C66.7674 27.972 66.6834 27.604 66.6834 27.164C66.6834 26.508 66.9154 26.008 67.3794 25.664C67.8514 25.32 68.5674 25.132 69.5274 25.1L70.5594 25.064V24.704C70.5594 24.224 70.4594 23.888 70.2594 23.696C70.0674 23.504 69.7954 23.408 69.4434 23.408C69.1474 23.408 68.8554 23.456 68.5674 23.552C68.2794 23.648 67.9994 23.764 67.7274 23.9L67.3314 22.976C67.6274 22.816 67.9634 22.684 68.3394 22.58C68.7234 22.468 69.1274 22.412 69.5514 22.412ZM69.7794 25.916C69.1234 25.948 68.6674 26.072 68.4114 26.288C68.1554 26.496 68.0274 26.792 68.0274 27.176C68.0274 27.512 68.1154 27.756 68.2914 27.908C68.4754 28.06 68.7114 28.136 68.9994 28.136C69.4394 28.136 69.8074 27.996 70.1034 27.716C70.4074 27.436 70.5594 27.016 70.5594 26.456V25.892L69.7794 25.916ZM77.7585 27.176C77.7585 27.6 77.6625 27.956 77.4705 28.244C77.2785 28.532 76.9985 28.752 76.6305 28.904C76.2625 29.048 75.8105 29.12 75.2745 29.12C74.8505 29.12 74.4785 29.084 74.1585 29.012C73.8465 28.948 73.5585 28.852 73.2945 28.724V27.608C73.5745 27.744 73.8945 27.868 74.2545 27.98C74.6145 28.084 74.9585 28.136 75.2865 28.136C75.7105 28.136 76.0185 28.06 76.2105 27.908C76.4025 27.756 76.4985 27.552 76.4985 27.296C76.4985 27.152 76.4585 27.024 76.3785 26.912C76.3065 26.792 76.1665 26.672 75.9585 26.552C75.7505 26.424 75.4505 26.28 75.0585 26.12C74.6745 25.952 74.3505 25.788 74.0865 25.628C73.8305 25.46 73.6305 25.264 73.4865 25.04C73.3505 24.808 73.2825 24.512 73.2825 24.152C73.2825 23.592 73.4985 23.164 73.9305 22.868C74.3625 22.564 74.9265 22.412 75.6225 22.412C76.0065 22.412 76.3625 22.452 76.6905 22.532C77.0185 22.604 77.3385 22.716 77.6505 22.868L77.2545 23.84C77.0705 23.752 76.8825 23.68 76.6905 23.624C76.5065 23.56 76.3225 23.508 76.1385 23.468C75.9545 23.428 75.7705 23.408 75.5865 23.408C75.2425 23.408 74.9825 23.468 74.8065 23.588C74.6305 23.708 74.5425 23.876 74.5425 24.092C74.5425 24.252 74.5825 24.388 74.6625 24.5C74.7505 24.612 74.8985 24.724 75.1065 24.836C75.3225 24.948 75.6185 25.08 75.9945 25.232C76.3705 25.384 76.6905 25.54 76.9545 25.7C77.2185 25.86 77.4185 26.056 77.5545 26.288C77.6905 26.52 77.7585 26.816 77.7585 27.176ZM81.4423 28.088C81.6103 28.088 81.7743 28.072 81.9343 28.04C82.0943 28.008 82.2343 27.972 82.3543 27.932V28.892C82.2183 28.956 82.0383 29.008 81.8143 29.048C81.5983 29.096 81.3703 29.12 81.1303 29.12C80.7943 29.12 80.4863 29.06 80.2063 28.94C79.9263 28.82 79.7023 28.612 79.5343 28.316C79.3663 28.02 79.2823 27.608 79.2823 27.08V23.504H78.4543V22.928L79.3423 22.448L79.7863 21.08H80.5903V22.532H82.3063V23.504H80.5903V27.056C80.5903 27.408 80.6703 27.668 80.8303 27.836C80.9903 28.004 81.1943 28.088 81.4423 28.088ZM86.0045 22.412C86.5405 22.412 87.0045 22.532 87.3965 22.772C87.7885 23.004 88.0885 23.34 88.2965 23.78C88.5125 24.22 88.6205 24.74 88.6205 25.34V26.036H84.5525C84.5685 26.7 84.7285 27.208 85.0325 27.56C85.3365 27.912 85.7645 28.088 86.3165 28.088C86.7085 28.088 87.0565 28.052 87.3605 27.98C87.6725 27.9 87.9885 27.784 88.3085 27.632V28.688C88.0045 28.832 87.6925 28.94 87.3725 29.012C87.0605 29.084 86.6805 29.12 86.2325 29.12C85.6485 29.12 85.1285 28.996 84.6725 28.748C84.2165 28.5 83.8605 28.132 83.6045 27.644C83.3485 27.148 83.2205 26.54 83.2205 25.82C83.2205 25.092 83.3365 24.476 83.5685 23.972C83.8005 23.468 84.1245 23.084 84.5405 22.82C84.9645 22.548 85.4525 22.412 86.0045 22.412ZM86.0045 23.396C85.5965 23.396 85.2685 23.544 85.0205 23.84C84.7725 24.136 84.6285 24.556 84.5885 25.1H87.3365C87.3365 24.764 87.2885 24.468 87.1925 24.212C87.0965 23.956 86.9485 23.756 86.7485 23.612C86.5565 23.468 86.3085 23.396 86.0045 23.396ZM99.6978 24.632C99.6978 25.592 99.5258 26.396 99.1818 27.044C98.8458 27.692 98.3618 28.18 97.7298 28.508C97.0978 28.836 96.3338 29 95.4378 29H93.1338V20.432H95.6778C96.5018 20.432 97.2138 20.592 97.8138 20.912C98.4138 21.232 98.8778 21.704 99.2058 22.328C99.5338 22.944 99.6978 23.712 99.6978 24.632ZM98.3058 24.668C98.3058 23.948 98.2018 23.356 97.9938 22.892C97.7858 22.428 97.4778 22.084 97.0698 21.86C96.6698 21.636 96.1778 21.524 95.5938 21.524H94.4658V27.908H95.4018C96.3698 27.908 97.0938 27.636 97.5738 27.092C98.0618 26.548 98.3058 25.74 98.3058 24.668ZM103.723 22.412C104.259 22.412 104.723 22.532 105.115 22.772C105.507 23.004 105.807 23.34 106.015 23.78C106.231 24.22 106.339 24.74 106.339 25.34V26.036H102.271C102.287 26.7 102.447 27.208 102.751 27.56C103.055 27.912 103.483 28.088 104.035 28.088C104.427 28.088 104.775 28.052 105.079 27.98C105.391 27.9 105.707 27.784 106.027 27.632V28.688C105.723 28.832 105.411 28.94 105.091 29.012C104.779 29.084 104.399 29.12 103.951 29.12C103.367 29.12 102.847 28.996 102.391 28.748C101.935 28.5 101.579 28.132 101.323 27.644C101.067 27.148 100.939 26.54 100.939 25.82C100.939 25.092 101.055 24.476 101.287 23.972C101.519 23.468 101.843 23.084 102.259 22.82C102.683 22.548 103.171 22.412 103.723 22.412ZM103.723 23.396C103.315 23.396 102.987 23.544 102.739 23.84C102.491 24.136 102.347 24.556 102.307 25.1H105.055C105.055 24.764 105.007 24.468 104.911 24.212C104.815 23.956 104.667 23.756 104.467 23.612C104.275 23.468 104.027 23.396 103.723 23.396ZM110.083 28.088C110.251 28.088 110.415 28.072 110.575 28.04C110.735 28.008 110.875 27.972 110.995 27.932V28.892C110.859 28.956 110.679 29.008 110.455 29.048C110.239 29.096 110.011 29.12 109.771 29.12C109.435 29.12 109.127 29.06 108.847 28.94C108.567 28.82 108.343 28.612 108.175 28.316C108.007 28.02 107.923 27.608 107.923 27.08V23.504H107.095V22.928L107.983 22.448L108.427 21.08H109.231V22.532H110.947V23.504H109.231V27.056C109.231 27.408 109.311 27.668 109.471 27.836C109.631 28.004 109.835 28.088 110.083 28.088ZM114.645 22.412C115.405 22.412 115.977 22.592 116.361 22.952C116.753 23.304 116.949 23.86 116.949 24.62V29H116.025L115.773 28.1H115.725C115.541 28.332 115.357 28.524 115.173 28.676C114.997 28.828 114.789 28.94 114.549 29.012C114.317 29.084 114.029 29.12 113.685 29.12C113.325 29.12 113.001 29.052 112.713 28.916C112.425 28.772 112.197 28.556 112.029 28.268C111.861 27.972 111.777 27.604 111.777 27.164C111.777 26.508 112.009 26.008 112.473 25.664C112.945 25.32 113.661 25.132 114.621 25.1L115.653 25.064V24.704C115.653 24.224 115.553 23.888 115.353 23.696C115.161 23.504 114.889 23.408 114.537 23.408C114.241 23.408 113.949 23.456 113.661 23.552C113.373 23.648 113.093 23.764 112.821 23.9L112.425 22.976C112.721 22.816 113.057 22.684 113.433 22.58C113.817 22.468 114.221 22.412 114.645 22.412ZM114.873 25.916C114.217 25.948 113.761 26.072 113.505 26.288C113.249 26.496 113.121 26.792 113.121 27.176C113.121 27.512 113.209 27.756 113.385 27.908C113.569 28.06 113.805 28.136 114.093 28.136C114.533 28.136 114.901 27.996 115.197 27.716C115.501 27.436 115.653 27.016 115.653 26.456V25.892L114.873 25.916ZM120.044 22.532V29H118.736V22.532H120.044ZM119.408 20.072C119.6 20.072 119.768 20.128 119.912 20.24C120.056 20.352 120.128 20.54 120.128 20.804C120.128 21.06 120.056 21.248 119.912 21.368C119.768 21.48 119.6 21.536 119.408 21.536C119.2 21.536 119.024 21.48 118.88 21.368C118.736 21.248 118.664 21.06 118.664 20.804C118.664 20.54 118.736 20.352 118.88 20.24C119.024 20.128 119.2 20.072 119.408 20.072ZM123.161 29H121.865V19.88H123.161V29ZM129.098 27.176C129.098 27.6 129.002 27.956 128.81 28.244C128.618 28.532 128.338 28.752 127.97 28.904C127.602 29.048 127.15 29.12 126.614 29.12C126.19 29.12 125.818 29.084 125.498 29.012C125.186 28.948 124.898 28.852 124.634 28.724V27.608C124.914 27.744 125.234 27.868 125.594 27.98C125.954 28.084 126.298 28.136 126.626 28.136C127.05 28.136 127.358 28.06 127.55 27.908C127.742 27.756 127.838 27.552 127.838 27.296C127.838 27.152 127.798 27.024 127.718 26.912C127.646 26.792 127.506 26.672 127.298 26.552C127.09 26.424 126.79 26.28 126.398 26.12C126.014 25.952 125.69 25.788 125.426 25.628C125.17 25.46 124.97 25.264 124.826 25.04C124.69 24.808 124.622 24.512 124.622 24.152C124.622 23.592 124.838 23.164 125.27 22.868C125.702 22.564 126.266 22.412 126.962 22.412C127.346 22.412 127.702 22.452 128.03 22.532C128.358 22.604 128.678 22.716 128.99 22.868L128.594 23.84C128.41 23.752 128.222 23.68 128.03 23.624C127.846 23.56 127.662 23.508 127.478 23.468C127.294 23.428 127.11 23.408 126.926 23.408C126.582 23.408 126.322 23.468 126.146 23.588C125.97 23.708 125.882 23.876 125.882 24.092C125.882 24.252 125.922 24.388 126.002 24.5C126.09 24.612 126.238 24.724 126.446 24.836C126.662 24.948 126.958 25.08 127.334 25.232C127.71 25.384 128.03 25.54 128.294 25.7C128.558 25.86 128.758 26.056 128.894 26.288C129.03 26.52 129.098 26.816 129.098 27.176Z" fill="#898F8F"/>
<rect x="172.666" y="7" width="76.3333" height="2" fill="#60BA8A"/>
<path fill-rule="evenodd" clip-rule="evenodd" d="M257 16C261.418 16 265 12.4183 265 8C265 3.58172 261.418 0 257 0C252.582 0 249 3.58172 249 8C249 12.4183 252.582 16 257 16Z" fill="#60BA8A"/>
<path fill-rule="evenodd" clip-rule="evenodd" d="M257 12C259.209 12 261 10.2091 261 8C261 5.79086 259.209 4 257 4C254.791 4 253 5.79086 253 8C253 10.2091 254.791 12 257 12Z" fill="white"/>
<rect x="265" y="7" width="76.3333" height="2" fill="#E0E0E7"/>
<path d="M216.981 20.432C218.037 20.432 218.805 20.652 219.285 21.092C219.765 21.532 220.005 22.152 220.005 22.952C220.005 23.304 219.949 23.644 219.837 23.972C219.733 24.292 219.557 24.58 219.309 24.836C219.061 25.092 218.729 25.296 218.313 25.448C217.905 25.592 217.401 25.664 216.801 25.664H215.889V29H214.821V20.432H216.981ZM216.897 21.356H215.889V24.74H216.681C217.177 24.74 217.589 24.684 217.917 24.572C218.245 24.452 218.489 24.264 218.649 24.008C218.817 23.752 218.901 23.416 218.901 23C218.901 22.448 218.737 22.036 218.409 21.764C218.089 21.492 217.585 21.356 216.897 21.356ZM222.588 22.568V29H221.544V22.568H222.588ZM222.072 20.156C222.232 20.156 222.372 20.212 222.492 20.324C222.612 20.428 222.672 20.596 222.672 20.828C222.672 21.052 222.612 21.22 222.492 21.332C222.372 21.444 222.232 21.5 222.072 21.5C221.904 21.5 221.76 21.444 221.64 21.332C221.52 21.22 221.46 21.052 221.46 20.828C221.46 20.596 221.52 20.428 221.64 20.324C221.76 20.212 221.904 20.156 222.072 20.156ZM226.921 29.12C226.377 29.12 225.897 29.004 225.481 28.772C225.065 28.54 224.737 28.18 224.497 27.692C224.265 27.204 224.149 26.58 224.149 25.82C224.149 25.028 224.273 24.384 224.521 23.888C224.769 23.392 225.105 23.028 225.529 22.796C225.961 22.564 226.449 22.448 226.993 22.448C227.305 22.448 227.605 22.484 227.893 22.556C228.189 22.62 228.429 22.7 228.613 22.796L228.289 23.672C228.105 23.6 227.889 23.532 227.641 23.468C227.401 23.404 227.177 23.372 226.969 23.372C226.577 23.372 226.253 23.464 225.997 23.648C225.741 23.832 225.549 24.104 225.421 24.464C225.293 24.824 225.229 25.272 225.229 25.808C225.229 26.32 225.293 26.756 225.421 27.116C225.549 27.476 225.737 27.748 225.985 27.932C226.241 28.116 226.553 28.208 226.921 28.208C227.249 28.208 227.541 28.172 227.797 28.1C228.053 28.028 228.289 27.94 228.505 27.836V28.772C228.297 28.884 228.069 28.968 227.821 29.024C227.573 29.088 227.273 29.12 226.921 29.12ZM230.966 24.644C230.966 24.772 230.958 24.94 230.942 25.148C230.934 25.356 230.926 25.536 230.918 25.688H230.966C231.014 25.624 231.082 25.532 231.17 25.412C231.258 25.292 231.35 25.172 231.446 25.052C231.542 24.924 231.626 24.82 231.698 24.74L233.606 22.568H234.818L232.37 25.316L234.986 29H233.738L231.662 26L230.966 26.636V29H229.934V19.88H230.966V24.644ZM241.128 22.568V29H240.288L240.132 28.148H240.084C239.956 28.372 239.788 28.556 239.58 28.7C239.38 28.844 239.16 28.948 238.92 29.012C238.68 29.084 238.428 29.12 238.164 29.12C237.684 29.12 237.28 29.04 236.952 28.88C236.624 28.712 236.376 28.456 236.208 28.112C236.048 27.768 235.968 27.324 235.968 26.78V22.568H237.024V26.708C237.024 27.22 237.132 27.604 237.348 27.86C237.564 28.116 237.896 28.244 238.344 28.244C238.784 28.244 239.128 28.156 239.376 27.98C239.632 27.796 239.812 27.532 239.916 27.188C240.028 26.836 240.084 26.412 240.084 25.916V22.568H241.128ZM245.94 22.448C246.684 22.448 247.28 22.724 247.728 23.276C248.184 23.828 248.412 24.66 248.412 25.772C248.412 26.5 248.308 27.116 248.1 27.62C247.892 28.116 247.6 28.492 247.224 28.748C246.856 28.996 246.424 29.12 245.928 29.12C245.616 29.12 245.34 29.076 245.1 28.988C244.868 28.9 244.668 28.788 244.5 28.652C244.332 28.508 244.188 28.352 244.068 28.184H243.996C244.012 28.32 244.028 28.492 244.044 28.7C244.06 28.908 244.068 29.088 244.068 29.24V31.88H243.024V22.568H243.876L244.02 23.444H244.068C244.188 23.26 244.332 23.092 244.5 22.94C244.668 22.788 244.868 22.668 245.1 22.58C245.34 22.492 245.62 22.448 245.94 22.448ZM245.736 23.336C245.336 23.336 245.012 23.42 244.764 23.588C244.524 23.748 244.348 23.992 244.236 24.32C244.124 24.648 244.068 25.064 244.068 25.568V25.772C244.068 26.3 244.116 26.748 244.212 27.116C244.316 27.484 244.492 27.764 244.74 27.956C244.988 28.148 245.328 28.244 245.76 28.244C246.12 28.244 246.416 28.136 246.648 27.92C246.88 27.704 247.052 27.412 247.164 27.044C247.276 26.668 247.332 26.24 247.332 25.76C247.332 25.024 247.2 24.436 246.936 23.996C246.68 23.556 246.28 23.336 245.736 23.336ZM257.631 26.708C257.631 27.22 257.511 27.656 257.271 28.016C257.039 28.368 256.707 28.64 256.275 28.832C255.851 29.024 255.343 29.12 254.751 29.12C254.455 29.12 254.167 29.104 253.887 29.072C253.615 29.04 253.363 28.996 253.131 28.94C252.907 28.876 252.707 28.8 252.531 28.712V27.68C252.811 27.808 253.151 27.924 253.551 28.028C253.959 28.132 254.375 28.184 254.799 28.184C255.191 28.184 255.515 28.128 255.771 28.016C256.035 27.904 256.231 27.744 256.359 27.536C256.495 27.328 256.563 27.084 256.563 26.804C256.563 26.524 256.503 26.288 256.383 26.096C256.271 25.904 256.079 25.728 255.807 25.568C255.535 25.4 255.163 25.224 254.691 25.04C254.355 24.904 254.059 24.76 253.803 24.608C253.547 24.448 253.331 24.268 253.155 24.068C252.979 23.868 252.847 23.64 252.759 23.384C252.671 23.128 252.627 22.832 252.627 22.496C252.627 22.04 252.735 21.652 252.951 21.332C253.175 21.004 253.479 20.752 253.863 20.576C254.255 20.4 254.707 20.312 255.219 20.312C255.659 20.312 256.063 20.356 256.431 20.444C256.799 20.532 257.139 20.648 257.451 20.792L257.115 21.716C256.827 21.588 256.519 21.48 256.191 21.392C255.871 21.304 255.539 21.26 255.195 21.26C254.867 21.26 254.591 21.312 254.367 21.416C254.151 21.52 253.987 21.668 253.875 21.86C253.763 22.044 253.707 22.26 253.707 22.508C253.707 22.796 253.763 23.036 253.875 23.228C253.987 23.42 254.171 23.592 254.427 23.744C254.683 23.896 255.023 24.06 255.447 24.236C255.919 24.42 256.315 24.62 256.635 24.836C256.963 25.044 257.211 25.296 257.379 25.592C257.547 25.888 257.631 26.26 257.631 26.708ZM261.538 29.12C260.994 29.12 260.514 29.004 260.098 28.772C259.682 28.54 259.354 28.18 259.114 27.692C258.882 27.204 258.766 26.58 258.766 25.82C258.766 25.028 258.89 24.384 259.138 23.888C259.386 23.392 259.722 23.028 260.146 22.796C260.578 22.564 261.066 22.448 261.61 22.448C261.922 22.448 262.222 22.484 262.51 22.556C262.806 22.62 263.046 22.7 263.23 22.796L262.906 23.672C262.722 23.6 262.506 23.532 262.258 23.468C262.018 23.404 261.794 23.372 261.586 23.372C261.194 23.372 260.87 23.464 260.614 23.648C260.358 23.832 260.166 24.104 260.038 24.464C259.91 24.824 259.846 25.272 259.846 25.808C259.846 26.32 259.91 26.756 260.038 27.116C260.166 27.476 260.354 27.748 260.602 27.932C260.858 28.116 261.17 28.208 261.538 28.208C261.866 28.208 262.158 28.172 262.414 28.1C262.67 28.028 262.906 27.94 263.122 27.836V28.772C262.914 28.884 262.686 28.968 262.438 29.024C262.19 29.088 261.89 29.12 261.538 29.12ZM265.596 22.556C265.596 22.708 265.588 22.864 265.572 23.024C265.564 23.184 265.552 23.328 265.536 23.456H265.608C265.736 23.232 265.896 23.048 266.088 22.904C266.288 22.76 266.504 22.652 266.736 22.58C266.976 22.5 267.224 22.46 267.48 22.46C267.968 22.46 268.376 22.544 268.704 22.712C269.032 22.872 269.28 23.124 269.448 23.468C269.616 23.812 269.7 24.26 269.7 24.812V29H268.656V24.884C268.656 24.364 268.548 23.976 268.332 23.72C268.116 23.464 267.784 23.336 267.336 23.336C266.896 23.336 266.548 23.428 266.292 23.612C266.036 23.788 265.856 24.052 265.752 24.404C265.648 24.748 265.596 25.172 265.596 25.676V29H264.552V19.88H265.596V22.556ZM273.911 22.448C274.431 22.448 274.879 22.568 275.255 22.808C275.631 23.048 275.919 23.388 276.119 23.828C276.327 24.26 276.431 24.768 276.431 25.352V25.988H272.303C272.319 26.716 272.491 27.272 272.819 27.656C273.147 28.032 273.607 28.22 274.199 28.22C274.583 28.22 274.923 28.184 275.219 28.112C275.523 28.032 275.835 27.92 276.155 27.776V28.7C275.843 28.844 275.535 28.948 275.231 29.012C274.935 29.084 274.575 29.12 274.151 29.12C273.575 29.12 273.067 28.996 272.627 28.748C272.187 28.5 271.843 28.132 271.595 27.644C271.347 27.148 271.223 26.544 271.223 25.832C271.223 25.128 271.335 24.524 271.559 24.02C271.783 23.516 272.095 23.128 272.495 22.856C272.903 22.584 273.375 22.448 273.911 22.448ZM273.911 23.312C273.447 23.312 273.079 23.476 272.807 23.804C272.535 24.124 272.375 24.572 272.327 25.148H275.351C275.351 24.78 275.299 24.46 275.195 24.188C275.091 23.916 274.931 23.704 274.715 23.552C274.507 23.392 274.239 23.312 273.911 23.312ZM280.082 29.12C279.338 29.12 278.738 28.844 278.282 28.292C277.834 27.732 277.61 26.9 277.61 25.796C277.61 24.692 277.838 23.86 278.294 23.3C278.75 22.732 279.35 22.448 280.094 22.448C280.406 22.448 280.678 22.492 280.91 22.58C281.142 22.66 281.342 22.772 281.51 22.916C281.686 23.06 281.834 23.22 281.954 23.396H282.026C282.018 23.292 282.002 23.14 281.978 22.94C281.962 22.732 281.954 22.568 281.954 22.448V19.88H282.998V29H282.158L282.002 28.136H281.954C281.834 28.32 281.686 28.488 281.51 28.64C281.342 28.784 281.138 28.9 280.898 28.988C280.666 29.076 280.394 29.12 280.082 29.12ZM280.274 28.244C280.898 28.244 281.334 28.06 281.582 27.692C281.838 27.316 281.966 26.752 281.966 26V25.808C281.966 25.008 281.846 24.396 281.606 23.972C281.366 23.54 280.918 23.324 280.262 23.324C279.734 23.324 279.338 23.552 279.074 24.008C278.818 24.456 278.69 25.06 278.69 25.82C278.69 26.588 278.818 27.184 279.074 27.608C279.338 28.032 279.738 28.244 280.274 28.244ZM289.995 22.568V29H289.155L288.999 28.148H288.951C288.823 28.372 288.655 28.556 288.447 28.7C288.247 28.844 288.027 28.948 287.787 29.012C287.547 29.084 287.295 29.12 287.031 29.12C286.551 29.12 286.147 29.04 285.819 28.88C285.491 28.712 285.243 28.456 285.075 28.112C284.915 27.768 284.835 27.324 284.835 26.78V22.568H285.891V26.708C285.891 27.22 285.999 27.604 286.215 27.86C286.431 28.116 286.763 28.244 287.211 28.244C287.651 28.244 287.995 28.156 288.243 27.98C288.499 27.796 288.679 27.532 288.783 27.188C288.895 26.836 288.951 26.412 288.951 25.916V22.568H289.995ZM292.935 29H291.891V19.88H292.935V29ZM297.185 22.448C297.705 22.448 298.153 22.568 298.529 22.808C298.905 23.048 299.193 23.388 299.393 23.828C299.601 24.26 299.705 24.768 299.705 25.352V25.988H295.577C295.593 26.716 295.765 27.272 296.093 27.656C296.421 28.032 296.881 28.22 297.473 28.22C297.857 28.22 298.197 28.184 298.493 28.112C298.797 28.032 299.109 27.92 299.429 27.776V28.7C299.117 28.844 298.809 28.948 298.505 29.012C298.209 29.084 297.849 29.12 297.425 29.12C296.849 29.12 296.341 28.996 295.901 28.748C295.461 28.5 295.117 28.132 294.869 27.644C294.621 27.148 294.497 26.544 294.497 25.832C294.497 25.128 294.609 24.524 294.833 24.02C295.057 23.516 295.369 23.128 295.769 22.856C296.177 22.584 296.649 22.448 297.185 22.448ZM297.185 23.312C296.721 23.312 296.353 23.476 296.081 23.804C295.809 24.124 295.649 24.572 295.601 25.148H298.625C298.625 24.78 298.573 24.46 298.469 24.188C298.365 23.916 298.205 23.704 297.989 23.552C297.781 23.392 297.513 23.312 297.185 23.312Z" fill="#60BA8A"/>
<rect x="341.334" y="7" width="76.3333" height="2" fill="#E0E0E7"/>
<g clip-path="url(#clip1_350_2271)">
<path fill-rule="evenodd" clip-rule="evenodd" d="M425.668 16C430.086 16 433.668 12.4183 433.668 8C433.668 3.58172 430.086 0 425.668 0C421.25 0 417.668 3.58172 417.668 8C417.668 12.4183 421.25 16 425.668 16Z" fill="white"/>
<path fill-rule="evenodd" clip-rule="evenodd" d="M425.668 12C427.877 12 429.668 10.2091 429.668 8C429.668 5.79086 427.877 4 425.668 4C423.459 4 421.668 5.79086 421.668 8C421.668 10.2091 423.459 12 425.668 12Z" fill="#E0E0E7"/>
</g>
<path d="M362.774 22.428C362.39 22.428 362.042 22.504 361.73 22.656C361.426 22.8 361.166 23.016 360.95 23.304C360.742 23.592 360.582 23.94 360.47 24.348C360.358 24.756 360.302 25.216 360.302 25.728C360.302 26.4 360.394 26.984 360.578 27.48C360.762 27.968 361.038 28.344 361.406 28.608C361.774 28.872 362.23 29.004 362.774 29.004C363.126 29.004 363.462 28.972 363.782 28.908C364.102 28.836 364.426 28.744 364.754 28.632V29.748C364.434 29.876 364.106 29.968 363.77 30.024C363.442 30.088 363.058 30.12 362.618 30.12C361.786 30.12 361.098 29.94 360.554 29.58C360.01 29.22 359.602 28.708 359.33 28.044C359.058 27.38 358.922 26.604 358.922 25.716C358.922 25.068 359.006 24.476 359.174 23.94C359.342 23.396 359.59 22.928 359.918 22.536C360.246 22.144 360.65 21.844 361.13 21.636C361.61 21.42 362.158 21.312 362.774 21.312C363.19 21.312 363.598 21.36 363.998 21.456C364.398 21.544 364.754 21.672 365.066 21.84L364.598 22.92C364.334 22.792 364.046 22.68 363.734 22.584C363.43 22.48 363.11 22.428 362.774 22.428ZM371.77 26.76C371.77 27.296 371.702 27.772 371.566 28.188C371.43 28.604 371.234 28.956 370.978 29.244C370.73 29.532 370.426 29.752 370.066 29.904C369.706 30.048 369.302 30.12 368.854 30.12C368.446 30.12 368.066 30.048 367.714 29.904C367.362 29.752 367.058 29.532 366.802 29.244C366.546 28.956 366.346 28.604 366.202 28.188C366.066 27.772 365.998 27.292 365.998 26.748C365.998 26.036 366.114 25.432 366.346 24.936C366.578 24.44 366.91 24.064 367.342 23.808C367.782 23.544 368.302 23.412 368.902 23.412C369.462 23.412 369.958 23.544 370.39 23.808C370.822 24.064 371.158 24.44 371.398 24.936C371.646 25.432 371.77 26.04 371.77 26.76ZM367.342 26.76C367.342 27.24 367.394 27.656 367.498 28.008C367.61 28.352 367.778 28.616 368.002 28.8C368.234 28.984 368.526 29.076 368.878 29.076C369.238 29.076 369.53 28.984 369.754 28.8C369.986 28.616 370.154 28.352 370.258 28.008C370.37 27.656 370.426 27.24 370.426 26.76C370.426 26.264 370.37 25.848 370.258 25.512C370.146 25.176 369.978 24.92 369.754 24.744C369.53 24.56 369.234 24.468 368.866 24.468C368.33 24.468 367.942 24.668 367.702 25.068C367.462 25.468 367.342 26.032 367.342 26.76ZM376.416 23.412C377.12 23.412 377.66 23.6 378.036 23.976C378.42 24.352 378.612 24.956 378.612 25.788V30H377.316V25.968C377.316 25.464 377.216 25.088 377.016 24.84C376.824 24.584 376.524 24.456 376.116 24.456C375.516 24.456 375.104 24.652 374.88 25.044C374.656 25.436 374.544 26 374.544 26.736V30H373.248V23.532H374.268L374.448 24.396H374.52C374.656 24.172 374.82 23.988 375.012 23.844C375.204 23.7 375.42 23.592 375.66 23.52C375.9 23.448 376.152 23.412 376.416 23.412ZM383.456 24.504H381.98V30H380.672V24.504H379.676V23.904L380.672 23.508V23.1C380.672 22.548 380.748 22.108 380.9 21.78C381.06 21.444 381.292 21.2 381.596 21.048C381.9 20.896 382.272 20.82 382.712 20.82C382.976 20.82 383.22 20.844 383.444 20.892C383.668 20.94 383.864 20.992 384.032 21.048L383.708 22.02C383.588 21.98 383.448 21.944 383.288 21.912C383.136 21.872 382.98 21.852 382.82 21.852C382.532 21.852 382.32 21.956 382.184 22.164C382.048 22.372 381.98 22.688 381.98 23.112V23.532H383.456V24.504ZM385.796 23.532V30H384.488V23.532H385.796ZM385.16 21.072C385.352 21.072 385.52 21.128 385.664 21.24C385.808 21.352 385.88 21.54 385.88 21.804C385.88 22.06 385.808 22.248 385.664 22.368C385.52 22.48 385.352 22.536 385.16 22.536C384.952 22.536 384.776 22.48 384.632 22.368C384.488 22.248 384.416 22.06 384.416 21.804C384.416 21.54 384.488 21.352 384.632 21.24C384.776 21.128 384.952 21.072 385.16 21.072ZM390.699 23.412C390.803 23.412 390.919 23.42 391.047 23.436C391.175 23.444 391.283 23.456 391.371 23.472L391.239 24.66C391.151 24.636 391.051 24.616 390.939 24.6C390.827 24.584 390.715 24.576 390.603 24.576C390.387 24.576 390.179 24.624 389.979 24.72C389.779 24.808 389.599 24.94 389.439 25.116C389.279 25.284 389.151 25.492 389.055 25.74C388.959 25.988 388.911 26.272 388.911 26.592V30H387.615V23.532H388.635L388.803 24.684H388.875C388.995 24.452 389.143 24.24 389.319 24.048C389.503 23.856 389.711 23.704 389.943 23.592C390.175 23.472 390.427 23.412 390.699 23.412ZM399.367 23.412C400.055 23.412 400.571 23.6 400.915 23.976C401.267 24.352 401.443 24.956 401.443 25.788V30H400.147V25.956C400.147 25.46 400.055 25.088 399.871 24.84C399.695 24.584 399.419 24.456 399.043 24.456C398.523 24.456 398.151 24.636 397.927 24.996C397.711 25.348 397.603 25.86 397.603 26.532V30H396.295V25.956C396.295 25.628 396.255 25.352 396.175 25.128C396.095 24.904 395.975 24.736 395.815 24.624C395.655 24.512 395.447 24.456 395.191 24.456C394.831 24.456 394.547 24.544 394.339 24.72C394.131 24.896 393.983 25.156 393.895 25.5C393.807 25.836 393.763 26.248 393.763 26.736V30H392.467V23.532H393.487L393.679 24.396H393.739C393.867 24.172 394.019 23.988 394.195 23.844C394.379 23.7 394.587 23.592 394.819 23.52C395.051 23.448 395.291 23.412 395.539 23.412C395.995 23.412 396.379 23.5 396.691 23.676C397.003 23.844 397.235 24.104 397.387 24.456H397.471C397.663 24.096 397.931 23.832 398.275 23.664C398.619 23.496 398.983 23.412 399.367 23.412ZM405.673 23.412C406.433 23.412 407.005 23.592 407.389 23.952C407.781 24.304 407.977 24.86 407.977 25.62V30H407.053L406.801 29.1H406.753C406.569 29.332 406.385 29.524 406.201 29.676C406.025 29.828 405.817 29.94 405.577 30.012C405.345 30.084 405.057 30.12 404.713 30.12C404.353 30.12 404.029 30.052 403.741 29.916C403.453 29.772 403.225 29.556 403.057 29.268C402.889 28.972 402.805 28.604 402.805 28.164C402.805 27.508 403.037 27.008 403.501 26.664C403.973 26.32 404.689 26.132 405.649 26.1L406.681 26.064V25.704C406.681 25.224 406.581 24.888 406.381 24.696C406.189 24.504 405.917 24.408 405.565 24.408C405.269 24.408 404.977 24.456 404.689 24.552C404.401 24.648 404.121 24.764 403.849 24.9L403.453 23.976C403.749 23.816 404.085 23.684 404.461 23.58C404.845 23.468 405.249 23.412 405.673 23.412ZM405.901 26.916C405.245 26.948 404.789 27.072 404.533 27.288C404.277 27.496 404.149 27.792 404.149 28.176C404.149 28.512 404.237 28.756 404.413 28.908C404.597 29.06 404.833 29.136 405.121 29.136C405.561 29.136 405.929 28.996 406.225 28.716C406.529 28.436 406.681 28.016 406.681 27.456V26.892L405.901 26.916ZM412.056 29.088C412.224 29.088 412.388 29.072 412.548 29.04C412.708 29.008 412.848 28.972 412.968 28.932V29.892C412.832 29.956 412.652 30.008 412.428 30.048C412.212 30.096 411.984 30.12 411.744 30.12C411.408 30.12 411.1 30.06 410.82 29.94C410.54 29.82 410.316 29.612 410.148 29.316C409.98 29.02 409.896 28.608 409.896 28.08V24.504H409.068V23.928L409.956 23.448L410.4 22.08H411.204V23.532H412.92V24.504H411.204V28.056C411.204 28.408 411.284 28.668 411.444 28.836C411.604 29.004 411.808 29.088 412.056 29.088ZM415.478 23.532V30H414.17V23.532H415.478ZM414.842 21.072C415.034 21.072 415.202 21.128 415.346 21.24C415.49 21.352 415.562 21.54 415.562 21.804C415.562 22.06 415.49 22.248 415.346 22.368C415.202 22.48 415.034 22.536 414.842 22.536C414.634 22.536 414.458 22.48 414.314 22.368C414.17 22.248 414.098 22.06 414.098 21.804C414.098 21.54 414.17 21.352 414.314 21.24C414.458 21.128 414.634 21.072 414.842 21.072ZM422.735 26.76C422.735 27.296 422.667 27.772 422.531 28.188C422.395 28.604 422.199 28.956 421.943 29.244C421.695 29.532 421.391 29.752 421.031 29.904C420.671 30.048 420.267 30.12 419.819 30.12C419.411 30.12 419.031 30.048 418.679 29.904C418.327 29.752 418.023 29.532 417.767 29.244C417.511 28.956 417.311 28.604 417.167 28.188C417.031 27.772 416.963 27.292 416.963 26.748C416.963 26.036 417.079 25.432 417.311 24.936C417.543 24.44 417.875 24.064 418.307 23.808C418.747 23.544 419.267 23.412 419.867 23.412C420.427 23.412 420.923 23.544 421.355 23.808C421.787 24.064 422.123 24.44 422.363 24.936C422.611 25.432 422.735 26.04 422.735 26.76ZM418.307 26.76C418.307 27.24 418.359 27.656 418.463 28.008C418.575 28.352 418.743 28.616 418.967 28.8C419.199 28.984 419.491 29.076 419.843 29.076C420.203 29.076 420.495 28.984 420.719 28.8C420.951 28.616 421.119 28.352 421.223 28.008C421.335 27.656 421.391 27.24 421.391 26.76C421.391 26.264 421.335 25.848 421.223 25.512C421.111 25.176 420.943 24.92 420.719 24.744C420.495 24.56 420.199 24.468 419.831 24.468C419.295 24.468 418.907 24.668 418.667 25.068C418.427 25.468 418.307 26.032 418.307 26.76ZM427.381 23.412C428.085 23.412 428.625 23.6 429.001 23.976C429.385 24.352 429.577 24.956 429.577 25.788V30H428.281V25.968C428.281 25.464 428.181 25.088 427.981 24.84C427.789 24.584 427.489 24.456 427.081 24.456C426.481 24.456 426.069 24.652 425.845 25.044C425.621 25.436 425.509 26 425.509 26.736V30H424.213V23.532H425.233L425.413 24.396H425.485C425.621 24.172 425.785 23.988 425.977 23.844C426.169 23.7 426.385 23.592 426.625 23.52C426.865 23.448 427.117 23.412 427.381 23.412ZM436.859 21.3C437.291 21.3 437.663 21.376 437.975 21.528C438.287 21.672 438.527 21.88 438.695 22.152C438.871 22.424 438.959 22.76 438.959 23.16C438.959 23.672 438.807 24.108 438.503 24.468C438.199 24.828 437.819 25.152 437.363 25.44L439.259 27.492C439.435 27.236 439.583 26.952 439.703 26.64C439.823 26.32 439.919 25.98 439.991 25.62H441.323C441.211 26.116 441.055 26.596 440.855 27.06C440.655 27.516 440.407 27.928 440.111 28.296L441.779 30H440.075L439.235 29.1C439.067 29.252 438.887 29.392 438.695 29.52C438.511 29.648 438.311 29.756 438.095 29.844C437.887 29.924 437.659 29.988 437.411 30.036C437.163 30.092 436.887 30.12 436.583 30.12C436.031 30.12 435.555 30.028 435.155 29.844C434.755 29.652 434.447 29.38 434.231 29.028C434.023 28.668 433.919 28.24 433.919 27.744C433.919 27.336 433.983 26.984 434.111 26.688C434.247 26.392 434.435 26.132 434.675 25.908C434.923 25.676 435.219 25.456 435.563 25.248C435.403 25.048 435.255 24.844 435.119 24.636C434.983 24.42 434.871 24.196 434.783 23.964C434.703 23.732 434.663 23.48 434.663 23.208C434.663 22.808 434.751 22.468 434.927 22.188C435.103 21.9 435.355 21.68 435.683 21.528C436.019 21.376 436.411 21.3 436.859 21.3ZM436.319 26.028C436.103 26.18 435.915 26.336 435.755 26.496C435.603 26.648 435.483 26.82 435.395 27.012C435.315 27.196 435.275 27.416 435.275 27.672C435.275 28.08 435.403 28.408 435.659 28.656C435.915 28.896 436.251 29.016 436.667 29.016C437.059 29.016 437.399 28.948 437.687 28.812C437.983 28.676 438.231 28.508 438.431 28.308L436.319 26.028ZM436.835 22.32C436.571 22.32 436.347 22.396 436.163 22.548C435.987 22.7 435.899 22.928 435.899 23.232C435.899 23.496 435.959 23.744 436.079 23.976C436.207 24.2 436.387 24.444 436.619 24.708C436.995 24.46 437.271 24.224 437.447 24C437.623 23.768 437.711 23.504 437.711 23.208C437.711 22.936 437.627 22.72 437.459 22.56C437.299 22.4 437.091 22.32 436.835 22.32ZM448.083 21.432C449.131 21.432 449.895 21.66 450.375 22.116C450.863 22.564 451.107 23.192 451.107 24C451.107 24.36 451.051 24.704 450.939 25.032C450.835 25.36 450.659 25.656 450.411 25.92C450.171 26.176 449.847 26.38 449.439 26.532C449.031 26.676 448.531 26.748 447.939 26.748H447.099V30H445.767V21.432H448.083ZM448.011 22.524H447.099V25.656H447.795C448.227 25.656 448.587 25.604 448.875 25.5C449.163 25.388 449.379 25.216 449.523 24.984C449.675 24.744 449.751 24.432 449.751 24.048C449.751 23.536 449.611 23.156 449.331 22.908C449.051 22.652 448.611 22.524 448.011 22.524ZM455.008 23.412C455.768 23.412 456.34 23.592 456.724 23.952C457.116 24.304 457.312 24.86 457.312 25.62V30H456.388L456.136 29.1H456.088C455.904 29.332 455.72 29.524 455.536 29.676C455.36 29.828 455.152 29.94 454.912 30.012C454.68 30.084 454.392 30.12 454.048 30.12C453.688 30.12 453.364 30.052 453.076 29.916C452.788 29.772 452.56 29.556 452.392 29.268C452.224 28.972 452.14 28.604 452.14 28.164C452.14 27.508 452.372 27.008 452.836 26.664C453.308 26.32 454.024 26.132 454.984 26.1L456.016 26.064V25.704C456.016 25.224 455.916 24.888 455.716 24.696C455.524 24.504 455.252 24.408 454.9 24.408C454.604 24.408 454.312 24.456 454.024 24.552C453.736 24.648 453.456 24.764 453.184 24.9L452.788 23.976C453.084 23.816 453.42 23.684 453.796 23.58C454.18 23.468 454.584 23.412 455.008 23.412ZM455.236 26.916C454.58 26.948 454.124 27.072 453.868 27.288C453.612 27.496 453.484 27.792 453.484 28.176C453.484 28.512 453.572 28.756 453.748 28.908C453.932 29.06 454.168 29.136 454.456 29.136C454.896 29.136 455.264 28.996 455.56 28.716C455.864 28.436 456.016 28.016 456.016 27.456V26.892L455.236 26.916ZM458.2 23.532H459.592L460.828 27.204C460.892 27.388 460.948 27.568 460.996 27.744C461.052 27.92 461.096 28.096 461.128 28.272C461.168 28.44 461.2 28.608 461.224 28.776H461.26C461.3 28.568 461.356 28.324 461.428 28.044C461.5 27.756 461.58 27.472 461.668 27.192L462.844 23.532H464.247L461.656 30.876C461.504 31.292 461.32 31.648 461.104 31.944C460.896 32.248 460.64 32.48 460.336 32.64C460.04 32.8 459.684 32.88 459.268 32.88C459.092 32.88 458.932 32.868 458.788 32.844C458.652 32.828 458.532 32.808 458.428 32.784V31.776C458.508 31.792 458.608 31.808 458.728 31.824C458.848 31.84 458.972 31.848 459.1 31.848C459.332 31.848 459.532 31.8 459.7 31.704C459.868 31.608 460.008 31.472 460.12 31.296C460.232 31.128 460.324 30.928 460.396 30.696L460.636 30L458.2 23.532ZM472.058 23.412C472.746 23.412 473.262 23.6 473.606 23.976C473.958 24.352 474.134 24.956 474.134 25.788V30H472.838V25.956C472.838 25.46 472.746 25.088 472.562 24.84C472.386 24.584 472.11 24.456 471.734 24.456C471.214 24.456 470.842 24.636 470.618 24.996C470.402 25.348 470.294 25.86 470.294 26.532V30H468.986V25.956C468.986 25.628 468.946 25.352 468.866 25.128C468.786 24.904 468.666 24.736 468.506 24.624C468.346 24.512 468.138 24.456 467.882 24.456C467.522 24.456 467.238 24.544 467.03 24.72C466.822 24.896 466.674 25.156 466.586 25.5C466.498 25.836 466.454 26.248 466.454 26.736V30H465.158V23.532H466.178L466.37 24.396H466.43C466.558 24.172 466.71 23.988 466.886 23.844C467.07 23.7 467.278 23.592 467.51 23.52C467.742 23.448 467.982 23.412 468.23 23.412C468.686 23.412 469.07 23.5 469.382 23.676C469.694 23.844 469.926 24.104 470.078 24.456H470.162C470.354 24.096 470.622 23.832 470.966 23.664C471.31 23.496 471.674 23.412 472.058 23.412ZM478.364 23.412C478.9 23.412 479.364 23.532 479.756 23.772C480.148 24.004 480.448 24.34 480.656 24.78C480.872 25.22 480.98 25.74 480.98 26.34V27.036H476.912C476.928 27.7 477.088 28.208 477.392 28.56C477.696 28.912 478.124 29.088 478.676 29.088C479.068 29.088 479.416 29.052 479.72 28.98C480.032 28.9 480.348 28.784 480.668 28.632V29.688C480.364 29.832 480.052 29.94 479.732 30.012C479.42 30.084 479.04 30.12 478.592 30.12C478.008 30.12 477.488 29.996 477.032 29.748C476.576 29.5 476.22 29.132 475.964 28.644C475.708 28.148 475.58 27.54 475.58 26.82C475.58 26.092 475.696 25.476 475.928 24.972C476.16 24.468 476.484 24.084 476.9 23.82C477.324 23.548 477.812 23.412 478.364 23.412ZM478.364 24.396C477.956 24.396 477.628 24.544 477.38 24.84C477.132 25.136 476.988 25.556 476.948 26.1H479.696C479.696 25.764 479.648 25.468 479.552 25.212C479.456 24.956 479.308 24.756 479.108 24.612C478.916 24.468 478.668 24.396 478.364 24.396ZM485.6 23.412C486.304 23.412 486.844 23.6 487.22 23.976C487.604 24.352 487.796 24.956 487.796 25.788V30H486.5V25.968C486.5 25.464 486.4 25.088 486.2 24.84C486.008 24.584 485.708 24.456 485.3 24.456C484.7 24.456 484.288 24.652 484.064 25.044C483.84 25.436 483.728 26 483.728 26.736V30H482.432V23.532H483.452L483.632 24.396H483.704C483.84 24.172 484.004 23.988 484.196 23.844C484.388 23.7 484.604 23.592 484.844 23.52C485.084 23.448 485.336 23.412 485.6 23.412ZM491.872 29.088C492.04 29.088 492.204 29.072 492.364 29.04C492.524 29.008 492.664 28.972 492.784 28.932V29.892C492.648 29.956 492.468 30.008 492.244 30.048C492.028 30.096 491.8 30.12 491.56 30.12C491.224 30.12 490.916 30.06 490.636 29.94C490.356 29.82 490.132 29.612 489.964 29.316C489.796 29.02 489.712 28.608 489.712 28.08V24.504H488.884V23.928L489.772 23.448L490.216 22.08H491.02V23.532H492.736V24.504H491.02V28.056C491.02 28.408 491.1 28.668 491.26 28.836C491.42 29.004 491.624 29.088 491.872 29.088Z" fill="#898F8F"/>
</g>
<defs>
<filter id="filter0_d_350_2271" x="0" y="0" width="514" height="42" filterUnits="userSpaceOnUse" color-interpolation-filters="sRGB">
<feFlood flood-opacity="0" result="BackgroundImageFix"/>
<feColorMatrix in="SourceAlpha" type="matrix" values="0 0 0 0 0 0 0 0 0 0 0 0 0 0 0 0 0 0 127 0" result="hardAlpha"/>
<feOffset dy="4"/>
<feGaussianBlur stdDeviation="2"/>
<feComposite in2="hardAlpha" operator="out"/>
<feColorMatrix type="matrix" values="0 0 0 0 0 0 0 0 0 0 0 0 0 0 0 0 0 0 0.25 0"/>
<feBlend mode="normal" in2="BackgroundImageFix" result="effect1_dropShadow_350_2271"/>
<feBlend mode="normal" in="SourceGraphic" in2="effect1_dropShadow_350_2271" result="shape"/>
</filter>
<clipPath id="clip0_350_2271">
<rect width="506" height="34" fill="white" transform="translate(4)"/>
</clipPath>
<clipPath id="clip1_350_2271">
<rect width="16" height="16" fill="white" transform="translate(417.668)"/>
</clipPath>
</defs>
</svg>
