<svg width="506" height="34" viewBox="0 0 506 34" fill="none" xmlns="http://www.w3.org/2000/svg">
<g clip-path="url(#clip0_350_2271)">
<path fill-rule="evenodd" clip-rule="evenodd" d="M84.334 16C88.7523 16 92.334 12.4183 92.334 8C92.334 3.58172 88.7523 0 84.334 0C79.9157 0 76.334 3.58172 76.334 8C76.334 12.4183 79.9157 16 84.334 16Z" fill="#60BA8A"/>
<path fill-rule="evenodd" clip-rule="evenodd" d="M89.2836 6.29301C89.6741 5.90248 89.6741 5.26932 89.2836 4.8788C88.8931 4.48827 88.2599 4.48827 87.8694 4.8788L82.9196 9.82854L80.7983 7.70722C80.4078 7.3167 79.7746 7.3167 79.3841 7.70722C78.9936 8.09775 78.9936 8.73091 79.3841 9.12144L82.2125 11.9499C82.603 12.3404 83.2362 12.3404 83.6267 11.9499L89.2836 6.29301Z" fill="white"/>
<rect x="92.334" y="7" width="76.3333" height="2" fill="#60BA8A"/>
<path d="M48.7058 29H44.1338V20.432H48.7058V21.536H45.4658V23.984H48.5138V25.076H45.4658V27.884H48.7058V29ZM49.7554 26.324V25.244H52.5874V26.324H49.7554ZM57.9965 25.412C57.9565 25.26 57.9165 25.104 57.8765 24.944C57.8365 24.784 57.7965 24.632 57.7565 24.488C57.7245 24.344 57.6965 24.208 57.6725 24.08C57.6485 23.952 57.6285 23.84 57.6125 23.744H57.5645C57.5565 23.84 57.5365 23.956 57.5045 24.092C57.4805 24.22 57.4525 24.36 57.4205 24.512C57.3885 24.656 57.3525 24.808 57.3125 24.968C57.2725 25.12 57.2325 25.276 57.1925 25.436L56.2325 28.988H54.7445L53.1005 22.52H54.4085L55.1765 25.928C55.2325 26.152 55.2805 26.38 55.3205 26.612C55.3685 26.836 55.4125 27.052 55.4525 27.26C55.4925 27.46 55.5165 27.636 55.5245 27.788H55.5725C55.5885 27.684 55.6085 27.56 55.6325 27.416C55.6645 27.264 55.6965 27.108 55.7285 26.948C55.7605 26.788 55.7925 26.632 55.8245 26.48C55.8645 26.328 55.9005 26.196 55.9325 26.084L56.8925 22.52H58.3205L59.2445 26.084C59.2925 26.244 59.3405 26.428 59.3885 26.636C59.4365 26.844 59.4805 27.048 59.5205 27.248C59.5605 27.448 59.5845 27.624 59.5925 27.776H59.6285C59.6445 27.64 59.6685 27.472 59.7005 27.272C59.7405 27.072 59.7885 26.856 59.8445 26.624C59.9005 26.392 59.9525 26.16 60.0005 25.928L60.7925 22.52H62.0765L60.4205 28.988H58.9085L57.9965 25.412ZM65.5514 22.412C66.3114 22.412 66.8834 22.592 67.2674 22.952C67.6594 23.304 67.8554 23.86 67.8554 24.62V29H66.9314L66.6794 28.1H66.6314C66.4474 28.332 66.2634 28.524 66.0794 28.676C65.9034 28.828 65.6954 28.94 65.4554 29.012C65.2234 29.084 64.9354 29.12 64.5914 29.12C64.2314 29.12 63.9074 29.052 63.6194 28.916C63.3314 28.772 63.1034 28.556 62.9354 28.268C62.7674 27.972 62.6834 27.604 62.6834 27.164C62.6834 26.508 62.9154 26.008 63.3794 25.664C63.8514 25.32 64.5674 25.132 65.5274 25.1L66.5594 25.064V24.704C66.5594 24.224 66.4594 23.888 66.2594 23.696C66.0674 23.504 65.7954 23.408 65.4434 23.408C65.1474 23.408 64.8554 23.456 64.5674 23.552C64.2794 23.648 63.9994 23.764 63.7274 23.9L63.3314 22.976C63.6274 22.816 63.9634 22.684 64.3394 22.58C64.7234 22.468 65.1274 22.412 65.5514 22.412ZM65.7794 25.916C65.1234 25.948 64.6674 26.072 64.4114 26.288C64.1554 26.496 64.0274 26.792 64.0274 27.176C64.0274 27.512 64.1154 27.756 64.2914 27.908C64.4754 28.06 64.7114 28.136 64.9994 28.136C65.4394 28.136 65.8074 27.996 66.1034 27.716C66.4074 27.436 66.5594 27.016 66.5594 26.456V25.892L65.7794 25.916ZM73.7585 27.176C73.7585 27.6 73.6625 27.956 73.4705 28.244C73.2785 28.532 72.9985 28.752 72.6305 28.904C72.2625 29.048 71.8105 29.12 71.2745 29.12C70.8505 29.12 70.4785 29.084 70.1585 29.012C69.8465 28.948 69.5585 28.852 69.2945 28.724V27.608C69.5745 27.744 69.8945 27.868 70.2545 27.98C70.6145 28.084 70.9585 28.136 71.2865 28.136C71.7105 28.136 72.0185 28.06 72.2105 27.908C72.4025 27.756 72.4985 27.552 72.4985 27.296C72.4985 27.152 72.4585 27.024 72.3785 26.912C72.3065 26.792 72.1665 26.672 71.9585 26.552C71.7505 26.424 71.4505 26.28 71.0585 26.12C70.6745 25.952 70.3505 25.788 70.0865 25.628C69.8305 25.46 69.6305 25.264 69.4865 25.04C69.3505 24.808 69.2825 24.512 69.2825 24.152C69.2825 23.592 69.4985 23.164 69.9305 22.868C70.3625 22.564 70.9265 22.412 71.6225 22.412C72.0065 22.412 72.3625 22.452 72.6905 22.532C73.0185 22.604 73.3385 22.716 73.6505 22.868L73.2545 23.84C73.0705 23.752 72.8825 23.68 72.6905 23.624C72.5065 23.56 72.3225 23.508 72.1385 23.468C71.9545 23.428 71.7705 23.408 71.5865 23.408C71.2425 23.408 70.9825 23.468 70.8065 23.588C70.6305 23.708 70.5425 23.876 70.5425 24.092C70.5425 24.252 70.5825 24.388 70.6625 24.5C70.7505 24.612 70.8985 24.724 71.1065 24.836C71.3225 24.948 71.6185 25.08 71.9945 25.232C72.3705 25.384 72.6905 25.54 72.9545 25.7C73.2185 25.86 73.4185 26.056 73.5545 26.288C73.6905 26.52 73.7585 26.816 73.7585 27.176ZM77.4423 28.088C77.6103 28.088 77.7743 28.072 77.9343 28.04C78.0943 28.008 78.2343 27.972 78.3543 27.932V28.892C78.2183 28.956 78.0383 29.008 77.8143 29.048C77.5983 29.096 77.3703 29.12 77.1303 29.12C76.7943 29.12 76.4863 29.06 76.2063 28.94C75.9263 28.82 75.7023 28.612 75.5343 28.316C75.3663 28.02 75.2823 27.608 75.2823 27.08V23.504H74.4543V22.928L75.3423 22.448L75.7863 21.08H76.5903V22.532H78.3063V23.504H76.5903V27.056C76.5903 27.408 76.6703 27.668 76.8303 27.836C76.9903 28.004 77.1943 28.088 77.4423 28.088ZM82.0045 22.412C82.5405 22.412 83.0045 22.532 83.3965 22.772C83.7885 23.004 84.0885 23.34 84.2965 23.78C84.5125 24.22 84.6205 24.74 84.6205 25.34V26.036H80.5525C80.5685 26.7 80.7285 27.208 81.0325 27.56C81.3365 27.912 81.7645 28.088 82.3165 28.088C82.7085 28.088 83.0565 28.052 83.3605 27.98C83.6725 27.9 83.9885 27.784 84.3085 27.632V28.688C84.0045 28.832 83.6925 28.94 83.3725 29.012C83.0605 29.084 82.6805 29.12 82.2325 29.12C81.6485 29.12 81.1285 28.996 80.6725 28.748C80.2165 28.5 79.8605 28.132 79.6045 27.644C79.3485 27.148 79.2205 26.54 79.2205 25.82C79.2205 25.092 79.3365 24.476 79.5685 23.972C79.8005 23.468 80.1245 23.084 80.5405 22.82C80.9645 22.548 81.4525 22.412 82.0045 22.412ZM82.0045 23.396C81.5965 23.396 81.2685 23.544 81.0205 23.84C80.7725 24.136 80.6285 24.556 80.5885 25.1H83.3365C83.3365 24.764 83.2885 24.468 83.1925 24.212C83.0965 23.956 82.9485 23.756 82.7485 23.612C82.5565 23.468 82.3085 23.396 82.0045 23.396ZM95.6978 24.632C95.6978 25.592 95.5258 26.396 95.1818 27.044C94.8458 27.692 94.3618 28.18 93.7298 28.508C93.0978 28.836 92.3338 29 91.4378 29H89.1338V20.432H91.6778C92.5018 20.432 93.2138 20.592 93.8138 20.912C94.4138 21.232 94.8778 21.704 95.2058 22.328C95.5338 22.944 95.6978 23.712 95.6978 24.632ZM94.3058 24.668C94.3058 23.948 94.2018 23.356 93.9938 22.892C93.7858 22.428 93.4778 22.084 93.0698 21.86C92.6698 21.636 92.1778 21.524 91.5938 21.524H90.4658V27.908H91.4018C92.3698 27.908 93.0938 27.636 93.5738 27.092C94.0618 26.548 94.3058 25.74 94.3058 24.668ZM99.7233 22.412C100.259 22.412 100.723 22.532 101.115 22.772C101.507 23.004 101.807 23.34 102.015 23.78C102.231 24.22 102.339 24.74 102.339 25.34V26.036H98.2713C98.2873 26.7 98.4473 27.208 98.7513 27.56C99.0553 27.912 99.4833 28.088 100.035 28.088C100.427 28.088 100.775 28.052 101.079 27.98C101.391 27.9 101.707 27.784 102.027 27.632V28.688C101.723 28.832 101.411 28.94 101.091 29.012C100.779 29.084 100.399 29.12 99.9513 29.12C99.3673 29.12 98.8473 28.996 98.3913 28.748C97.9353 28.5 97.5793 28.132 97.3233 27.644C97.0673 27.148 96.9393 26.54 96.9393 25.82C96.9393 25.092 97.0553 24.476 97.2873 23.972C97.5193 23.468 97.8433 23.084 98.2593 22.82C98.6833 22.548 99.1713 22.412 99.7233 22.412ZM99.7233 23.396C99.3153 23.396 98.9873 23.544 98.7393 23.84C98.4913 24.136 98.3473 24.556 98.3073 25.1H101.055C101.055 24.764 101.007 24.468 100.911 24.212C100.815 23.956 100.667 23.756 100.467 23.612C100.275 23.468 100.027 23.396 99.7233 23.396ZM106.083 28.088C106.251 28.088 106.415 28.072 106.575 28.04C106.735 28.008 106.875 27.972 106.995 27.932V28.892C106.859 28.956 106.679 29.008 106.455 29.048C106.239 29.096 106.011 29.12 105.771 29.12C105.435 29.12 105.127 29.06 104.847 28.94C104.567 28.82 104.343 28.612 104.175 28.316C104.007 28.02 103.923 27.608 103.923 27.08V23.504H103.095V22.928L103.983 22.448L104.427 21.08H105.231V22.532H106.947V23.504H105.231V27.056C105.231 27.408 105.311 27.668 105.471 27.836C105.631 28.004 105.835 28.088 106.083 28.088ZM110.645 22.412C111.405 22.412 111.977 22.592 112.361 22.952C112.753 23.304 112.949 23.86 112.949 24.62V29H112.025L111.773 28.1H111.725C111.541 28.332 111.357 28.524 111.173 28.676C110.997 28.828 110.789 28.94 110.549 29.012C110.317 29.084 110.029 29.12 109.685 29.12C109.325 29.12 109.001 29.052 108.713 28.916C108.425 28.772 108.197 28.556 108.029 28.268C107.861 27.972 107.777 27.604 107.777 27.164C107.777 26.508 108.009 26.008 108.473 25.664C108.945 25.32 109.661 25.132 110.621 25.1L111.653 25.064V24.704C111.653 24.224 111.553 23.888 111.353 23.696C111.161 23.504 110.889 23.408 110.537 23.408C110.241 23.408 109.949 23.456 109.661 23.552C109.373 23.648 109.093 23.764 108.821 23.9L108.425 22.976C108.721 22.816 109.057 22.684 109.433 22.58C109.817 22.468 110.221 22.412 110.645 22.412ZM110.873 25.916C110.217 25.948 109.761 26.072 109.505 26.288C109.249 26.496 109.121 26.792 109.121 27.176C109.121 27.512 109.209 27.756 109.385 27.908C109.569 28.06 109.805 28.136 110.093 28.136C110.533 28.136 110.901 27.996 111.197 27.716C111.501 27.436 111.653 27.016 111.653 26.456V25.892L110.873 25.916ZM116.044 22.532V29H114.736V22.532H116.044ZM115.408 20.072C115.6 20.072 115.768 20.128 115.912 20.24C116.056 20.352 116.128 20.54 116.128 20.804C116.128 21.06 116.056 21.248 115.912 21.368C115.768 21.48 115.6 21.536 115.408 21.536C115.2 21.536 115.024 21.48 114.88 21.368C114.736 21.248 114.664 21.06 114.664 20.804C114.664 20.54 114.736 20.352 114.88 20.24C115.024 20.128 115.2 20.072 115.408 20.072ZM119.161 29H117.865V19.88H119.161V29ZM125.098 27.176C125.098 27.6 125.002 27.956 124.81 28.244C124.618 28.532 124.338 28.752 123.97 28.904C123.602 29.048 123.15 29.12 122.614 29.12C122.19 29.12 121.818 29.084 121.498 29.012C121.186 28.948 120.898 28.852 120.634 28.724V27.608C120.914 27.744 121.234 27.868 121.594 27.98C121.954 28.084 122.298 28.136 122.626 28.136C123.05 28.136 123.358 28.06 123.55 27.908C123.742 27.756 123.838 27.552 123.838 27.296C123.838 27.152 123.798 27.024 123.718 26.912C123.646 26.792 123.506 26.672 123.298 26.552C123.09 26.424 122.79 26.28 122.398 26.12C122.014 25.952 121.69 25.788 121.426 25.628C121.17 25.46 120.97 25.264 120.826 25.04C120.69 24.808 120.622 24.512 120.622 24.152C120.622 23.592 120.838 23.164 121.27 22.868C121.702 22.564 122.266 22.412 122.962 22.412C123.346 22.412 123.702 22.452 124.03 22.532C124.358 22.604 124.678 22.716 124.99 22.868L124.594 23.84C124.41 23.752 124.222 23.68 124.03 23.624C123.846 23.56 123.662 23.508 123.478 23.468C123.294 23.428 123.11 23.408 122.926 23.408C122.582 23.408 122.322 23.468 122.146 23.588C121.97 23.708 121.882 23.876 121.882 24.092C121.882 24.252 121.922 24.388 122.002 24.5C122.09 24.612 122.238 24.724 122.446 24.836C122.662 24.948 122.958 25.08 123.334 25.232C123.71 25.384 124.03 25.54 124.294 25.7C124.558 25.86 124.758 26.056 124.894 26.288C125.03 26.52 125.098 26.816 125.098 27.176Z" fill="#898F8F"/>
<rect x="168.666" y="7" width="76.3333" height="2" fill="#60BA8A"/>
<path fill-rule="evenodd" clip-rule="evenodd" d="M253 16C257.418 16 261 12.4183 261 8C261 3.58172 257.418 0 253 0C248.582 0 245 3.58172 245 8C245 12.4183 248.582 16 253 16Z" fill="#60BA8A"/>
<path fill-rule="evenodd" clip-rule="evenodd" d="M253 12C255.209 12 257 10.2091 257 8C257 5.79086 255.209 4 253 4C250.791 4 249 5.79086 249 8C249 10.2091 250.791 12 253 12Z" fill="white"/>
<rect x="261" y="7" width="76.3333" height="2" fill="#E0E0E7"/>
<path d="M212.981 20.432C214.037 20.432 214.805 20.652 215.285 21.092C215.765 21.532 216.005 22.152 216.005 22.952C216.005 23.304 215.949 23.644 215.837 23.972C215.733 24.292 215.557 24.58 215.309 24.836C215.061 25.092 214.729 25.296 214.313 25.448C213.905 25.592 213.401 25.664 212.801 25.664H211.889V29H210.821V20.432H212.981ZM212.897 21.356H211.889V24.74H212.681C213.177 24.74 213.589 24.684 213.917 24.572C214.245 24.452 214.489 24.264 214.649 24.008C214.817 23.752 214.901 23.416 214.901 23C214.901 22.448 214.737 22.036 214.409 21.764C214.089 21.492 213.585 21.356 212.897 21.356ZM218.588 22.568V29H217.544V22.568H218.588ZM218.072 20.156C218.232 20.156 218.372 20.212 218.492 20.324C218.612 20.428 218.672 20.596 218.672 20.828C218.672 21.052 218.612 21.22 218.492 21.332C218.372 21.444 218.232 21.5 218.072 21.5C217.904 21.5 217.76 21.444 217.64 21.332C217.52 21.22 217.46 21.052 217.46 20.828C217.46 20.596 217.52 20.428 217.64 20.324C217.76 20.212 217.904 20.156 218.072 20.156ZM222.921 29.12C222.377 29.12 221.897 29.004 221.481 28.772C221.065 28.54 220.737 28.18 220.497 27.692C220.265 27.204 220.149 26.58 220.149 25.82C220.149 25.028 220.273 24.384 220.521 23.888C220.769 23.392 221.105 23.028 221.529 22.796C221.961 22.564 222.449 22.448 222.993 22.448C223.305 22.448 223.605 22.484 223.893 22.556C224.189 22.62 224.429 22.7 224.613 22.796L224.289 23.672C224.105 23.6 223.889 23.532 223.641 23.468C223.401 23.404 223.177 23.372 222.969 23.372C222.577 23.372 222.253 23.464 221.997 23.648C221.741 23.832 221.549 24.104 221.421 24.464C221.293 24.824 221.229 25.272 221.229 25.808C221.229 26.32 221.293 26.756 221.421 27.116C221.549 27.476 221.737 27.748 221.985 27.932C222.241 28.116 222.553 28.208 222.921 28.208C223.249 28.208 223.541 28.172 223.797 28.1C224.053 28.028 224.289 27.94 224.505 27.836V28.772C224.297 28.884 224.069 28.968 223.821 29.024C223.573 29.088 223.273 29.12 222.921 29.12ZM226.966 24.644C226.966 24.772 226.958 24.94 226.942 25.148C226.934 25.356 226.926 25.536 226.918 25.688H226.966C227.014 25.624 227.082 25.532 227.17 25.412C227.258 25.292 227.35 25.172 227.446 25.052C227.542 24.924 227.626 24.82 227.698 24.74L229.606 22.568H230.818L228.37 25.316L230.986 29H229.738L227.662 26L226.966 26.636V29H225.934V19.88H226.966V24.644ZM237.128 22.568V29H236.288L236.132 28.148H236.084C235.956 28.372 235.788 28.556 235.58 28.7C235.38 28.844 235.16 28.948 234.92 29.012C234.68 29.084 234.428 29.12 234.164 29.12C233.684 29.12 233.28 29.04 232.952 28.88C232.624 28.712 232.376 28.456 232.208 28.112C232.048 27.768 231.968 27.324 231.968 26.78V22.568H233.024V26.708C233.024 27.22 233.132 27.604 233.348 27.86C233.564 28.116 233.896 28.244 234.344 28.244C234.784 28.244 235.128 28.156 235.376 27.98C235.632 27.796 235.812 27.532 235.916 27.188C236.028 26.836 236.084 26.412 236.084 25.916V22.568H237.128ZM241.94 22.448C242.684 22.448 243.28 22.724 243.728 23.276C244.184 23.828 244.412 24.66 244.412 25.772C244.412 26.5 244.308 27.116 244.1 27.62C243.892 28.116 243.6 28.492 243.224 28.748C242.856 28.996 242.424 29.12 241.928 29.12C241.616 29.12 241.34 29.076 241.1 28.988C240.868 28.9 240.668 28.788 240.5 28.652C240.332 28.508 240.188 28.352 240.068 28.184H239.996C240.012 28.32 240.028 28.492 240.044 28.7C240.06 28.908 240.068 29.088 240.068 29.24V31.88H239.024V22.568H239.876L240.02 23.444H240.068C240.188 23.26 240.332 23.092 240.5 22.94C240.668 22.788 240.868 22.668 241.1 22.58C241.34 22.492 241.62 22.448 241.94 22.448ZM241.736 23.336C241.336 23.336 241.012 23.42 240.764 23.588C240.524 23.748 240.348 23.992 240.236 24.32C240.124 24.648 240.068 25.064 240.068 25.568V25.772C240.068 26.3 240.116 26.748 240.212 27.116C240.316 27.484 240.492 27.764 240.74 27.956C240.988 28.148 241.328 28.244 241.76 28.244C242.12 28.244 242.416 28.136 242.648 27.92C242.88 27.704 243.052 27.412 243.164 27.044C243.276 26.668 243.332 26.24 243.332 25.76C243.332 25.024 243.2 24.436 242.936 23.996C242.68 23.556 242.28 23.336 241.736 23.336ZM253.631 26.708C253.631 27.22 253.511 27.656 253.271 28.016C253.039 28.368 252.707 28.64 252.275 28.832C251.851 29.024 251.343 29.12 250.751 29.12C250.455 29.12 250.167 29.104 249.887 29.072C249.615 29.04 249.363 28.996 249.131 28.94C248.907 28.876 248.707 28.8 248.531 28.712V27.68C248.811 27.808 249.151 27.924 249.551 28.028C249.959 28.132 250.375 28.184 250.799 28.184C251.191 28.184 251.515 28.128 251.771 28.016C252.035 27.904 252.231 27.744 252.359 27.536C252.495 27.328 252.563 27.084 252.563 26.804C252.563 26.524 252.503 26.288 252.383 26.096C252.271 25.904 252.079 25.728 251.807 25.568C251.535 25.4 251.163 25.224 250.691 25.04C250.355 24.904 250.059 24.76 249.803 24.608C249.547 24.448 249.331 24.268 249.155 24.068C248.979 23.868 248.847 23.64 248.759 23.384C248.671 23.128 248.627 22.832 248.627 22.496C248.627 22.04 248.735 21.652 248.951 21.332C249.175 21.004 249.479 20.752 249.863 20.576C250.255 20.4 250.707 20.312 251.219 20.312C251.659 20.312 252.063 20.356 252.431 20.444C252.799 20.532 253.139 20.648 253.451 20.792L253.115 21.716C252.827 21.588 252.519 21.48 252.191 21.392C251.871 21.304 251.539 21.26 251.195 21.26C250.867 21.26 250.591 21.312 250.367 21.416C250.151 21.52 249.987 21.668 249.875 21.86C249.763 22.044 249.707 22.26 249.707 22.508C249.707 22.796 249.763 23.036 249.875 23.228C249.987 23.42 250.171 23.592 250.427 23.744C250.683 23.896 251.023 24.06 251.447 24.236C251.919 24.42 252.315 24.62 252.635 24.836C252.963 25.044 253.211 25.296 253.379 25.592C253.547 25.888 253.631 26.26 253.631 26.708ZM257.538 29.12C256.994 29.12 256.514 29.004 256.098 28.772C255.682 28.54 255.354 28.18 255.114 27.692C254.882 27.204 254.766 26.58 254.766 25.82C254.766 25.028 254.89 24.384 255.138 23.888C255.386 23.392 255.722 23.028 256.146 22.796C256.578 22.564 257.066 22.448 257.61 22.448C257.922 22.448 258.222 22.484 258.51 22.556C258.806 22.62 259.046 22.7 259.23 22.796L258.906 23.672C258.722 23.6 258.506 23.532 258.258 23.468C258.018 23.404 257.794 23.372 257.586 23.372C257.194 23.372 256.87 23.464 256.614 23.648C256.358 23.832 256.166 24.104 256.038 24.464C255.91 24.824 255.846 25.272 255.846 25.808C255.846 26.32 255.91 26.756 256.038 27.116C256.166 27.476 256.354 27.748 256.602 27.932C256.858 28.116 257.17 28.208 257.538 28.208C257.866 28.208 258.158 28.172 258.414 28.1C258.67 28.028 258.906 27.94 259.122 27.836V28.772C258.914 28.884 258.686 28.968 258.438 29.024C258.19 29.088 257.89 29.12 257.538 29.12ZM261.596 22.556C261.596 22.708 261.588 22.864 261.572 23.024C261.564 23.184 261.552 23.328 261.536 23.456H261.608C261.736 23.232 261.896 23.048 262.088 22.904C262.288 22.76 262.504 22.652 262.736 22.58C262.976 22.5 263.224 22.46 263.48 22.46C263.968 22.46 264.376 22.544 264.704 22.712C265.032 22.872 265.28 23.124 265.448 23.468C265.616 23.812 265.7 24.26 265.7 24.812V29H264.656V24.884C264.656 24.364 264.548 23.976 264.332 23.72C264.116 23.464 263.784 23.336 263.336 23.336C262.896 23.336 262.548 23.428 262.292 23.612C262.036 23.788 261.856 24.052 261.752 24.404C261.648 24.748 261.596 25.172 261.596 25.676V29H260.552V19.88H261.596V22.556ZM269.911 22.448C270.431 22.448 270.879 22.568 271.255 22.808C271.631 23.048 271.919 23.388 272.119 23.828C272.327 24.26 272.431 24.768 272.431 25.352V25.988H268.303C268.319 26.716 268.491 27.272 268.819 27.656C269.147 28.032 269.607 28.22 270.199 28.22C270.583 28.22 270.923 28.184 271.219 28.112C271.523 28.032 271.835 27.92 272.155 27.776V28.7C271.843 28.844 271.535 28.948 271.231 29.012C270.935 29.084 270.575 29.12 270.151 29.12C269.575 29.12 269.067 28.996 268.627 28.748C268.187 28.5 267.843 28.132 267.595 27.644C267.347 27.148 267.223 26.544 267.223 25.832C267.223 25.128 267.335 24.524 267.559 24.02C267.783 23.516 268.095 23.128 268.495 22.856C268.903 22.584 269.375 22.448 269.911 22.448ZM269.911 23.312C269.447 23.312 269.079 23.476 268.807 23.804C268.535 24.124 268.375 24.572 268.327 25.148H271.351C271.351 24.78 271.299 24.46 271.195 24.188C271.091 23.916 270.931 23.704 270.715 23.552C270.507 23.392 270.239 23.312 269.911 23.312ZM276.082 29.12C275.338 29.12 274.738 28.844 274.282 28.292C273.834 27.732 273.61 26.9 273.61 25.796C273.61 24.692 273.838 23.86 274.294 23.3C274.75 22.732 275.35 22.448 276.094 22.448C276.406 22.448 276.678 22.492 276.91 22.58C277.142 22.66 277.342 22.772 277.51 22.916C277.686 23.06 277.834 23.22 277.954 23.396H278.026C278.018 23.292 278.002 23.14 277.978 22.94C277.962 22.732 277.954 22.568 277.954 22.448V19.88H278.998V29H278.158L278.002 28.136H277.954C277.834 28.32 277.686 28.488 277.51 28.64C277.342 28.784 277.138 28.9 276.898 28.988C276.666 29.076 276.394 29.12 276.082 29.12ZM276.274 28.244C276.898 28.244 277.334 28.06 277.582 27.692C277.838 27.316 277.966 26.752 277.966 26V25.808C277.966 25.008 277.846 24.396 277.606 23.972C277.366 23.54 276.918 23.324 276.262 23.324C275.734 23.324 275.338 23.552 275.074 24.008C274.818 24.456 274.69 25.06 274.69 25.82C274.69 26.588 274.818 27.184 275.074 27.608C275.338 28.032 275.738 28.244 276.274 28.244ZM285.995 22.568V29H285.155L284.999 28.148H284.951C284.823 28.372 284.655 28.556 284.447 28.7C284.247 28.844 284.027 28.948 283.787 29.012C283.547 29.084 283.295 29.12 283.031 29.12C282.551 29.12 282.147 29.04 281.819 28.88C281.491 28.712 281.243 28.456 281.075 28.112C280.915 27.768 280.835 27.324 280.835 26.78V22.568H281.891V26.708C281.891 27.22 281.999 27.604 282.215 27.86C282.431 28.116 282.763 28.244 283.211 28.244C283.651 28.244 283.995 28.156 284.243 27.98C284.499 27.796 284.679 27.532 284.783 27.188C284.895 26.836 284.951 26.412 284.951 25.916V22.568H285.995ZM288.935 29H287.891V19.88H288.935V29ZM293.185 22.448C293.705 22.448 294.153 22.568 294.529 22.808C294.905 23.048 295.193 23.388 295.393 23.828C295.601 24.26 295.705 24.768 295.705 25.352V25.988H291.577C291.593 26.716 291.765 27.272 292.093 27.656C292.421 28.032 292.881 28.22 293.473 28.22C293.857 28.22 294.197 28.184 294.493 28.112C294.797 28.032 295.109 27.92 295.429 27.776V28.7C295.117 28.844 294.809 28.948 294.505 29.012C294.209 29.084 293.849 29.12 293.425 29.12C292.849 29.12 292.341 28.996 291.901 28.748C291.461 28.5 291.117 28.132 290.869 27.644C290.621 27.148 290.497 26.544 290.497 25.832C290.497 25.128 290.609 24.524 290.833 24.02C291.057 23.516 291.369 23.128 291.769 22.856C292.177 22.584 292.649 22.448 293.185 22.448ZM293.185 23.312C292.721 23.312 292.353 23.476 292.081 23.804C291.809 24.124 291.649 24.572 291.601 25.148H294.625C294.625 24.78 294.573 24.46 294.469 24.188C294.365 23.916 294.205 23.704 293.989 23.552C293.781 23.392 293.513 23.312 293.185 23.312Z" fill="#60BA8A"/>
<rect x="337.334" y="7" width="76.3333" height="2" fill="#E0E0E7"/>
<g clip-path="url(#clip1_350_2271)">
<path fill-rule="evenodd" clip-rule="evenodd" d="M421.668 16C426.086 16 429.668 12.4183 429.668 8C429.668 3.58172 426.086 0 421.668 0C417.25 0 413.668 3.58172 413.668 8C413.668 12.4183 417.25 16 421.668 16Z" fill="white"/>
<path fill-rule="evenodd" clip-rule="evenodd" d="M421.668 12C423.877 12 425.668 10.2091 425.668 8C425.668 5.79086 423.877 4 421.668 4C419.459 4 417.668 5.79086 417.668 8C417.668 10.2091 419.459 12 421.668 12Z" fill="#E0E0E7"/>
</g>
<path d="M358.774 22.428C358.39 22.428 358.042 22.504 357.73 22.656C357.426 22.8 357.166 23.016 356.95 23.304C356.742 23.592 356.582 23.94 356.47 24.348C356.358 24.756 356.302 25.216 356.302 25.728C356.302 26.4 356.394 26.984 356.578 27.48C356.762 27.968 357.038 28.344 357.406 28.608C357.774 28.872 358.23 29.004 358.774 29.004C359.126 29.004 359.462 28.972 359.782 28.908C360.102 28.836 360.426 28.744 360.754 28.632V29.748C360.434 29.876 360.106 29.968 359.77 30.024C359.442 30.088 359.058 30.12 358.618 30.12C357.786 30.12 357.098 29.94 356.554 29.58C356.01 29.22 355.602 28.708 355.33 28.044C355.058 27.38 354.922 26.604 354.922 25.716C354.922 25.068 355.006 24.476 355.174 23.94C355.342 23.396 355.59 22.928 355.918 22.536C356.246 22.144 356.65 21.844 357.13 21.636C357.61 21.42 358.158 21.312 358.774 21.312C359.19 21.312 359.598 21.36 359.998 21.456C360.398 21.544 360.754 21.672 361.066 21.84L360.598 22.92C360.334 22.792 360.046 22.68 359.734 22.584C359.43 22.48 359.11 22.428 358.774 22.428ZM367.77 26.76C367.77 27.296 367.702 27.772 367.566 28.188C367.43 28.604 367.234 28.956 366.978 29.244C366.73 29.532 366.426 29.752 366.066 29.904C365.706 30.048 365.302 30.12 364.854 30.12C364.446 30.12 364.066 30.048 363.714 29.904C363.362 29.752 363.058 29.532 362.802 29.244C362.546 28.956 362.346 28.604 362.202 28.188C362.066 27.772 361.998 27.292 361.998 26.748C361.998 26.036 362.114 25.432 362.346 24.936C362.578 24.44 362.91 24.064 363.342 23.808C363.782 23.544 364.302 23.412 364.902 23.412C365.462 23.412 365.958 23.544 366.39 23.808C366.822 24.064 367.158 24.44 367.398 24.936C367.646 25.432 367.77 26.04 367.77 26.76ZM363.342 26.76C363.342 27.24 363.394 27.656 363.498 28.008C363.61 28.352 363.778 28.616 364.002 28.8C364.234 28.984 364.526 29.076 364.878 29.076C365.238 29.076 365.53 28.984 365.754 28.8C365.986 28.616 366.154 28.352 366.258 28.008C366.37 27.656 366.426 27.24 366.426 26.76C366.426 26.264 366.37 25.848 366.258 25.512C366.146 25.176 365.978 24.92 365.754 24.744C365.53 24.56 365.234 24.468 364.866 24.468C364.33 24.468 363.942 24.668 363.702 25.068C363.462 25.468 363.342 26.032 363.342 26.76ZM372.416 23.412C373.12 23.412 373.66 23.6 374.036 23.976C374.42 24.352 374.612 24.956 374.612 25.788V30H373.316V25.968C373.316 25.464 373.216 25.088 373.016 24.84C372.824 24.584 372.524 24.456 372.116 24.456C371.516 24.456 371.104 24.652 370.88 25.044C370.656 25.436 370.544 26 370.544 26.736V30H369.248V23.532H370.268L370.448 24.396H370.52C370.656 24.172 370.82 23.988 371.012 23.844C371.204 23.7 371.42 23.592 371.66 23.52C371.9 23.448 372.152 23.412 372.416 23.412ZM379.456 24.504H377.98V30H376.672V24.504H375.676V23.904L376.672 23.508V23.1C376.672 22.548 376.748 22.108 376.9 21.78C377.06 21.444 377.292 21.2 377.596 21.048C377.9 20.896 378.272 20.82 378.712 20.82C378.976 20.82 379.22 20.844 379.444 20.892C379.668 20.94 379.864 20.992 380.032 21.048L379.708 22.02C379.588 21.98 379.448 21.944 379.288 21.912C379.136 21.872 378.98 21.852 378.82 21.852C378.532 21.852 378.32 21.956 378.184 22.164C378.048 22.372 377.98 22.688 377.98 23.112V23.532H379.456V24.504ZM381.796 23.532V30H380.488V23.532H381.796ZM381.16 21.072C381.352 21.072 381.52 21.128 381.664 21.24C381.808 21.352 381.88 21.54 381.88 21.804C381.88 22.06 381.808 22.248 381.664 22.368C381.52 22.48 381.352 22.536 381.16 22.536C380.952 22.536 380.776 22.48 380.632 22.368C380.488 22.248 380.416 22.06 380.416 21.804C380.416 21.54 380.488 21.352 380.632 21.24C380.776 21.128 380.952 21.072 381.16 21.072ZM386.699 23.412C386.803 23.412 386.919 23.42 387.047 23.436C387.175 23.444 387.283 23.456 387.371 23.472L387.239 24.66C387.151 24.636 387.051 24.616 386.939 24.6C386.827 24.584 386.715 24.576 386.603 24.576C386.387 24.576 386.179 24.624 385.979 24.72C385.779 24.808 385.599 24.94 385.439 25.116C385.279 25.284 385.151 25.492 385.055 25.74C384.959 25.988 384.911 26.272 384.911 26.592V30H383.615V23.532H384.635L384.803 24.684H384.875C384.995 24.452 385.143 24.24 385.319 24.048C385.503 23.856 385.711 23.704 385.943 23.592C386.175 23.472 386.427 23.412 386.699 23.412ZM395.367 23.412C396.055 23.412 396.571 23.6 396.915 23.976C397.267 24.352 397.443 24.956 397.443 25.788V30H396.147V25.956C396.147 25.46 396.055 25.088 395.871 24.84C395.695 24.584 395.419 24.456 395.043 24.456C394.523 24.456 394.151 24.636 393.927 24.996C393.711 25.348 393.603 25.86 393.603 26.532V30H392.295V25.956C392.295 25.628 392.255 25.352 392.175 25.128C392.095 24.904 391.975 24.736 391.815 24.624C391.655 24.512 391.447 24.456 391.191 24.456C390.831 24.456 390.547 24.544 390.339 24.72C390.131 24.896 389.983 25.156 389.895 25.5C389.807 25.836 389.763 26.248 389.763 26.736V30H388.467V23.532H389.487L389.679 24.396H389.739C389.867 24.172 390.019 23.988 390.195 23.844C390.379 23.7 390.587 23.592 390.819 23.52C391.051 23.448 391.291 23.412 391.539 23.412C391.995 23.412 392.379 23.5 392.691 23.676C393.003 23.844 393.235 24.104 393.387 24.456H393.471C393.663 24.096 393.931 23.832 394.275 23.664C394.619 23.496 394.983 23.412 395.367 23.412ZM401.673 23.412C402.433 23.412 403.005 23.592 403.389 23.952C403.781 24.304 403.977 24.86 403.977 25.62V30H403.053L402.801 29.1H402.753C402.569 29.332 402.385 29.524 402.201 29.676C402.025 29.828 401.817 29.94 401.577 30.012C401.345 30.084 401.057 30.12 400.713 30.12C400.353 30.12 400.029 30.052 399.741 29.916C399.453 29.772 399.225 29.556 399.057 29.268C398.889 28.972 398.805 28.604 398.805 28.164C398.805 27.508 399.037 27.008 399.501 26.664C399.973 26.32 400.689 26.132 401.649 26.1L402.681 26.064V25.704C402.681 25.224 402.581 24.888 402.381 24.696C402.189 24.504 401.917 24.408 401.565 24.408C401.269 24.408 400.977 24.456 400.689 24.552C400.401 24.648 400.121 24.764 399.849 24.9L399.453 23.976C399.749 23.816 400.085 23.684 400.461 23.58C400.845 23.468 401.249 23.412 401.673 23.412ZM401.901 26.916C401.245 26.948 400.789 27.072 400.533 27.288C400.277 27.496 400.149 27.792 400.149 28.176C400.149 28.512 400.237 28.756 400.413 28.908C400.597 29.06 400.833 29.136 401.121 29.136C401.561 29.136 401.929 28.996 402.225 28.716C402.529 28.436 402.681 28.016 402.681 27.456V26.892L401.901 26.916ZM408.056 29.088C408.224 29.088 408.388 29.072 408.548 29.04C408.708 29.008 408.848 28.972 408.968 28.932V29.892C408.832 29.956 408.652 30.008 408.428 30.048C408.212 30.096 407.984 30.12 407.744 30.12C407.408 30.12 407.1 30.06 406.82 29.94C406.54 29.82 406.316 29.612 406.148 29.316C405.98 29.02 405.896 28.608 405.896 28.08V24.504H405.068V23.928L405.956 23.448L406.4 22.08H407.204V23.532H408.92V24.504H407.204V28.056C407.204 28.408 407.284 28.668 407.444 28.836C407.604 29.004 407.808 29.088 408.056 29.088ZM411.478 23.532V30H410.17V23.532H411.478ZM410.842 21.072C411.034 21.072 411.202 21.128 411.346 21.24C411.49 21.352 411.562 21.54 411.562 21.804C411.562 22.06 411.49 22.248 411.346 22.368C411.202 22.48 411.034 22.536 410.842 22.536C410.634 22.536 410.458 22.48 410.314 22.368C410.17 22.248 410.098 22.06 410.098 21.804C410.098 21.54 410.17 21.352 410.314 21.24C410.458 21.128 410.634 21.072 410.842 21.072ZM418.735 26.76C418.735 27.296 418.667 27.772 418.531 28.188C418.395 28.604 418.199 28.956 417.943 29.244C417.695 29.532 417.391 29.752 417.031 29.904C416.671 30.048 416.267 30.12 415.819 30.12C415.411 30.12 415.031 30.048 414.679 29.904C414.327 29.752 414.023 29.532 413.767 29.244C413.511 28.956 413.311 28.604 413.167 28.188C413.031 27.772 412.963 27.292 412.963 26.748C412.963 26.036 413.079 25.432 413.311 24.936C413.543 24.44 413.875 24.064 414.307 23.808C414.747 23.544 415.267 23.412 415.867 23.412C416.427 23.412 416.923 23.544 417.355 23.808C417.787 24.064 418.123 24.44 418.363 24.936C418.611 25.432 418.735 26.04 418.735 26.76ZM414.307 26.76C414.307 27.24 414.359 27.656 414.463 28.008C414.575 28.352 414.743 28.616 414.967 28.8C415.199 28.984 415.491 29.076 415.843 29.076C416.203 29.076 416.495 28.984 416.719 28.8C416.951 28.616 417.119 28.352 417.223 28.008C417.335 27.656 417.391 27.24 417.391 26.76C417.391 26.264 417.335 25.848 417.223 25.512C417.111 25.176 416.943 24.92 416.719 24.744C416.495 24.56 416.199 24.468 415.831 24.468C415.295 24.468 414.907 24.668 414.667 25.068C414.427 25.468 414.307 26.032 414.307 26.76ZM423.381 23.412C424.085 23.412 424.625 23.6 425.001 23.976C425.385 24.352 425.577 24.956 425.577 25.788V30H424.281V25.968C424.281 25.464 424.181 25.088 423.981 24.84C423.789 24.584 423.489 24.456 423.081 24.456C422.481 24.456 422.069 24.652 421.845 25.044C421.621 25.436 421.509 26 421.509 26.736V30H420.213V23.532H421.233L421.413 24.396H421.485C421.621 24.172 421.785 23.988 421.977 23.844C422.169 23.7 422.385 23.592 422.625 23.52C422.865 23.448 423.117 23.412 423.381 23.412ZM432.859 21.3C433.291 21.3 433.663 21.376 433.975 21.528C434.287 21.672 434.527 21.88 434.695 22.152C434.871 22.424 434.959 22.76 434.959 23.16C434.959 23.672 434.807 24.108 434.503 24.468C434.199 24.828 433.819 25.152 433.363 25.44L435.259 27.492C435.435 27.236 435.583 26.952 435.703 26.64C435.823 26.32 435.919 25.98 435.991 25.62H437.323C437.211 26.116 437.055 26.596 436.855 27.06C436.655 27.516 436.407 27.928 436.111 28.296L437.779 30H436.075L435.235 29.1C435.067 29.252 434.887 29.392 434.695 29.52C434.511 29.648 434.311 29.756 434.095 29.844C433.887 29.924 433.659 29.988 433.411 30.036C433.163 30.092 432.887 30.12 432.583 30.12C432.031 30.12 431.555 30.028 431.155 29.844C430.755 29.652 430.447 29.38 430.231 29.028C430.023 28.668 429.919 28.24 429.919 27.744C429.919 27.336 429.983 26.984 430.111 26.688C430.247 26.392 430.435 26.132 430.675 25.908C430.923 25.676 431.219 25.456 431.563 25.248C431.403 25.048 431.255 24.844 431.119 24.636C430.983 24.42 430.871 24.196 430.783 23.964C430.703 23.732 430.663 23.48 430.663 23.208C430.663 22.808 430.751 22.468 430.927 22.188C431.103 21.9 431.355 21.68 431.683 21.528C432.019 21.376 432.411 21.3 432.859 21.3ZM432.319 26.028C432.103 26.18 431.915 26.336 431.755 26.496C431.603 26.648 431.483 26.82 431.395 27.012C431.315 27.196 431.275 27.416 431.275 27.672C431.275 28.08 431.403 28.408 431.659 28.656C431.915 28.896 432.251 29.016 432.667 29.016C433.059 29.016 433.399 28.948 433.687 28.812C433.983 28.676 434.231 28.508 434.431 28.308L432.319 26.028ZM432.835 22.32C432.571 22.32 432.347 22.396 432.163 22.548C431.987 22.7 431.899 22.928 431.899 23.232C431.899 23.496 431.959 23.744 432.079 23.976C432.207 24.2 432.387 24.444 432.619 24.708C432.995 24.46 433.271 24.224 433.447 24C433.623 23.768 433.711 23.504 433.711 23.208C433.711 22.936 433.627 22.72 433.459 22.56C433.299 22.4 433.091 22.32 432.835 22.32ZM444.083 21.432C445.131 21.432 445.895 21.66 446.375 22.116C446.863 22.564 447.107 23.192 447.107 24C447.107 24.36 447.051 24.704 446.939 25.032C446.835 25.36 446.659 25.656 446.411 25.92C446.171 26.176 445.847 26.38 445.439 26.532C445.031 26.676 444.531 26.748 443.939 26.748H443.099V30H441.767V21.432H444.083ZM444.011 22.524H443.099V25.656H443.795C444.227 25.656 444.587 25.604 444.875 25.5C445.163 25.388 445.379 25.216 445.523 24.984C445.675 24.744 445.751 24.432 445.751 24.048C445.751 23.536 445.611 23.156 445.331 22.908C445.051 22.652 444.611 22.524 444.011 22.524ZM451.008 23.412C451.768 23.412 452.34 23.592 452.724 23.952C453.116 24.304 453.312 24.86 453.312 25.62V30H452.388L452.136 29.1H452.088C451.904 29.332 451.72 29.524 451.536 29.676C451.36 29.828 451.152 29.94 450.912 30.012C450.68 30.084 450.392 30.12 450.048 30.12C449.688 30.12 449.364 30.052 449.076 29.916C448.788 29.772 448.56 29.556 448.392 29.268C448.224 28.972 448.14 28.604 448.14 28.164C448.14 27.508 448.372 27.008 448.836 26.664C449.308 26.32 450.024 26.132 450.984 26.1L452.016 26.064V25.704C452.016 25.224 451.916 24.888 451.716 24.696C451.524 24.504 451.252 24.408 450.9 24.408C450.604 24.408 450.312 24.456 450.024 24.552C449.736 24.648 449.456 24.764 449.184 24.9L448.788 23.976C449.084 23.816 449.42 23.684 449.796 23.58C450.18 23.468 450.584 23.412 451.008 23.412ZM451.236 26.916C450.58 26.948 450.124 27.072 449.868 27.288C449.612 27.496 449.484 27.792 449.484 28.176C449.484 28.512 449.572 28.756 449.748 28.908C449.932 29.06 450.168 29.136 450.456 29.136C450.896 29.136 451.264 28.996 451.56 28.716C451.864 28.436 452.016 28.016 452.016 27.456V26.892L451.236 26.916ZM454.2 23.532H455.592L456.828 27.204C456.892 27.388 456.948 27.568 456.996 27.744C457.052 27.92 457.096 28.096 457.128 28.272C457.168 28.44 457.2 28.608 457.224 28.776H457.26C457.3 28.568 457.356 28.324 457.428 28.044C457.5 27.756 457.58 27.472 457.668 27.192L458.844 23.532H460.247L457.656 30.876C457.504 31.292 457.32 31.648 457.104 31.944C456.896 32.248 456.64 32.48 456.336 32.64C456.04 32.8 455.684 32.88 455.268 32.88C455.092 32.88 454.932 32.868 454.788 32.844C454.652 32.828 454.532 32.808 454.428 32.784V31.776C454.508 31.792 454.608 31.808 454.728 31.824C454.848 31.84 454.972 31.848 455.1 31.848C455.332 31.848 455.532 31.8 455.7 31.704C455.868 31.608 456.008 31.472 456.12 31.296C456.232 31.128 456.324 30.928 456.396 30.696L456.636 30L454.2 23.532ZM468.058 23.412C468.746 23.412 469.262 23.6 469.606 23.976C469.958 24.352 470.134 24.956 470.134 25.788V30H468.838V25.956C468.838 25.46 468.746 25.088 468.562 24.84C468.386 24.584 468.11 24.456 467.734 24.456C467.214 24.456 466.842 24.636 466.618 24.996C466.402 25.348 466.294 25.86 466.294 26.532V30H464.986V25.956C464.986 25.628 464.946 25.352 464.866 25.128C464.786 24.904 464.666 24.736 464.506 24.624C464.346 24.512 464.138 24.456 463.882 24.456C463.522 24.456 463.238 24.544 463.03 24.72C462.822 24.896 462.674 25.156 462.586 25.5C462.498 25.836 462.454 26.248 462.454 26.736V30H461.158V23.532H462.178L462.37 24.396H462.43C462.558 24.172 462.71 23.988 462.886 23.844C463.07 23.7 463.278 23.592 463.51 23.52C463.742 23.448 463.982 23.412 464.23 23.412C464.686 23.412 465.07 23.5 465.382 23.676C465.694 23.844 465.926 24.104 466.078 24.456H466.162C466.354 24.096 466.622 23.832 466.966 23.664C467.31 23.496 467.674 23.412 468.058 23.412ZM474.364 23.412C474.9 23.412 475.364 23.532 475.756 23.772C476.148 24.004 476.448 24.34 476.656 24.78C476.872 25.22 476.98 25.74 476.98 26.34V27.036H472.912C472.928 27.7 473.088 28.208 473.392 28.56C473.696 28.912 474.124 29.088 474.676 29.088C475.068 29.088 475.416 29.052 475.72 28.98C476.032 28.9 476.348 28.784 476.668 28.632V29.688C476.364 29.832 476.052 29.94 475.732 30.012C475.42 30.084 475.04 30.12 474.592 30.12C474.008 30.12 473.488 29.996 473.032 29.748C472.576 29.5 472.22 29.132 471.964 28.644C471.708 28.148 471.58 27.54 471.58 26.82C471.58 26.092 471.696 25.476 471.928 24.972C472.16 24.468 472.484 24.084 472.9 23.82C473.324 23.548 473.812 23.412 474.364 23.412ZM474.364 24.396C473.956 24.396 473.628 24.544 473.38 24.84C473.132 25.136 472.988 25.556 472.948 26.1H475.696C475.696 25.764 475.648 25.468 475.552 25.212C475.456 24.956 475.308 24.756 475.108 24.612C474.916 24.468 474.668 24.396 474.364 24.396ZM481.6 23.412C482.304 23.412 482.844 23.6 483.22 23.976C483.604 24.352 483.796 24.956 483.796 25.788V30H482.5V25.968C482.5 25.464 482.4 25.088 482.2 24.84C482.008 24.584 481.708 24.456 481.3 24.456C480.7 24.456 480.288 24.652 480.064 25.044C479.84 25.436 479.728 26 479.728 26.736V30H478.432V23.532H479.452L479.632 24.396H479.704C479.84 24.172 480.004 23.988 480.196 23.844C480.388 23.7 480.604 23.592 480.844 23.52C481.084 23.448 481.336 23.412 481.6 23.412ZM487.872 29.088C488.04 29.088 488.204 29.072 488.364 29.04C488.524 29.008 488.664 28.972 488.784 28.932V29.892C488.648 29.956 488.468 30.008 488.244 30.048C488.028 30.096 487.8 30.12 487.56 30.12C487.224 30.12 486.916 30.06 486.636 29.94C486.356 29.82 486.132 29.612 485.964 29.316C485.796 29.02 485.712 28.608 485.712 28.08V24.504H484.884V23.928L485.772 23.448L486.216 22.08H487.02V23.532H488.736V24.504H487.02V28.056C487.02 28.408 487.1 28.668 487.26 28.836C487.42 29.004 487.624 29.088 487.872 29.088Z" fill="#898F8F"/>
</g>
<defs>
<clipPath id="clip0_350_2271">
<rect width="506" height="34" fill="white"/>
</clipPath>
<clipPath id="clip1_350_2271">
<rect width="16" height="16" fill="white" transform="translate(413.668)"/>
</clipPath>
</defs>
</svg>
